<?xml version="1.0" encoding="UTF-8"?>
<svg version="1.1" xmlns="http://www.w3.org/2000/svg" width="625" height="399">
<path d="M0 0 C2.5 2.25 2.5 2.25 5 5 C6.485 6.11375 6.485 6.11375 8 7.25 C12.41005519 10.90600431 15.23991381 15.6853384 16.51953125 21.265625 C17.01654146 27.87701658 14.02386731 32.01680009 10 37 C9.44699219 37.69222656 8.89398438 38.38445312 8.32421875 39.09765625 C4.85931445 43.23164552 1.08731939 46.78666044 -3.015625 50.27734375 C-6.97758952 53.7167657 -10.72146205 57.35027361 -13.9375 61.5 C-16.3449456 64.41811588 -19.04468411 66.71850314 -21.9140625 69.171875 C-25.09864797 71.96286002 -28.03755865 74.97764411 -31 78 C-33.64736778 80.65625157 -36.30432764 83.30233705 -38.97265625 85.9375 C-40.00262733 86.95830996 -41.03257501 87.97914353 -42.0625 89 C-42.8369043 89.76183594 -42.8369043 89.76183594 -43.62695312 90.5390625 C-45.9397754 92.83715343 -48.08432063 95.10540078 -50.125 97.65625 C-51.92072878 99.90091097 -53.74133159 101.6560883 -55.9375 103.5 C-58.36156578 105.56293866 -60.67711122 107.63526041 -62.875 109.9375 C-65 112 -65 112 -67 112 C-67.226875 112.639375 -67.45375 113.27875 -67.6875 113.9375 C-69 116 -69 116 -71.25 117 C-76.30127249 117 -79.30109386 113.6381317 -82.875 110.375 C-85 108 -85 108 -85 106 C-85.8353125 105.690625 -85.8353125 105.690625 -86.6875 105.375 C-89.85990745 103.48870368 -91.67742698 100.84515195 -94 98 C-95.32901064 96.99426222 -96.66073801 95.99204592 -98 95 C-98 94.34 -98 93.68 -98 93 C-98.59039062 92.74863281 -99.18078125 92.49726563 -99.7890625 92.23828125 C-102.27650807 90.84513594 -103.58070723 89.39035239 -105.375 87.1875 C-107.49568917 84.67258015 -109.54470975 82.41662141 -112.125 80.375 C-117.8737732 75.62601344 -120.77510754 71.98901538 -121.89453125 64.57421875 C-122.19087894 57.34113993 -119.17045977 52.87295752 -114.5 47.5625 C-108.52681937 41.20106263 -108.52681937 41.20106263 -104.15234375 40.625 C-96.06752994 41.58676224 -89.55031253 50.23709722 -84.55078125 56.203125 C-80.37222187 61.08905584 -80.37222187 61.08905584 -74.5703125 63.32421875 C-71.39816772 62.92408499 -70.3036575 61.99075679 -68 59.8125 C-67.3090625 59.16667969 -66.618125 58.52085937 -65.90625 57.85546875 C-65.2771875 57.24316406 -64.648125 56.63085938 -64 56 C-63.175 55.21625 -62.35 54.4325 -61.5 53.625 C-58.4724492 50.44607166 -55.61856267 47.13227326 -52.76953125 43.79296875 C-52.18558594 43.20128906 -51.60164063 42.60960937 -51 42 C-50.34 42 -49.68 42 -49 42 C-49 41.34 -49 40.68 -49 40 C-47.6796875 38.73828125 -47.6796875 38.73828125 -45.875 37.3125 C-42.56872653 34.59639299 -39.90985088 31.67219481 -37.26171875 28.3203125 C-36.63716797 27.66675781 -36.63716797 27.66675781 -36 27 C-35.34 27 -34.68 27 -34 27 C-34 26.34 -34 25.68 -34 25 C-33.34 25 -32.68 25 -32 25 C-31.505 23.515 -31.505 23.515 -31 22 C-29.58203125 20.640625 -29.58203125 20.640625 -27.8125 19.25 C-25.26641427 17.15505369 -23.09160183 15.04825883 -21 12.5 C-18.45943855 9.42135716 -15.69862877 6.88439504 -12.61328125 4.359375 C-10.95885441 3.00838323 -10.95885441 3.00838323 -9.41796875 1.390625 C-6.31339665 -1.65407932 -4.03526938 -1.10772101 0 0 Z M-5 15 C-5.33 15.99 -5.66 16.98 -6 18 C-6.86625 18.4021875 -6.86625 18.4021875 -7.75 18.8125 C-10.98257602 20.51858179 -12.7056628 23.18943694 -15 26 C-16.32901064 27.00573778 -17.66073801 28.00795408 -19 29 C-19 29.66 -19 30.32 -19 31 C-19.556875 31.226875 -20.11375 31.45375 -20.6875 31.6875 C-23.66159588 33.37550036 -25.72008865 35.46676517 -28 38 C-28 38.66 -28 39.32 -28 40 C-28.556875 40.20625 -29.11375 40.4125 -29.6875 40.625 C-32.85990745 42.51129632 -34.67742698 45.15484805 -37 48 C-38.32901064 49.00573778 -39.66073801 50.00795408 -41 51 C-41 51.66 -41 52.32 -41 53 C-42.98 53.99 -42.98 53.99 -45 55 C-45 55.66 -45 56.32 -45 57 C-45.556875 57.226875 -46.11375 57.45375 -46.6875 57.6875 C-49.66159588 59.37550036 -51.72008865 61.46676517 -54 64 C-54 64.66 -54 65.32 -54 66 C-54.556875 66.226875 -55.11375 66.45375 -55.6875 66.6875 C-58.66159588 68.37550036 -60.72008865 70.46676517 -63 73 C-63 73.66 -63 74.32 -63 75 C-71.33128318 78.297061 -77.41453185 78.33810295 -85.6875 74.875 C-88.57815395 72.53122653 -90.8375163 69.83739894 -93.23046875 66.99609375 C-95.60345407 64.31928249 -98.20279008 62.22505334 -101 60 C-102.01680311 59.01709032 -103.02738219 58.02665213 -104 57 C-105.70735301 58.03568595 -105.70735301 58.03568595 -107 60 C-106.97283938 64.45977362 -106.2434584 67.1391691 -103.234375 70.3515625 C-102.08793148 71.45847349 -100.92590852 72.54944254 -99.75 73.625 C-99.17636719 74.1715625 -98.60273438 74.718125 -98.01171875 75.28125 C-96.8763017 76.36235325 -95.73564046 77.43797771 -94.58959961 78.5078125 C-91.22432347 81.66686146 -88.01701357 84.98027421 -84.80859375 88.296875 C-83.68499152 89.44801007 -82.56129229 90.59905047 -81.4375 91.75 C-80.87353516 92.33910156 -80.30957031 92.92820312 -79.72851562 93.53515625 C-79.17744141 94.09589844 -78.62636719 94.65664062 -78.05859375 95.234375 C-77.56673584 95.74194336 -77.07487793 96.24951172 -76.56811523 96.77246094 C-74.69416576 98.23941064 -73.36611708 98.75986913 -71 99 C-68.54088679 96.87685203 -68.54088679 96.87685203 -66 94 C-64.88624492 93.04916833 -63.76054742 92.11219633 -62.625 91.1875 C-59.29393841 88.38277498 -56.565207 85.25584808 -53.75390625 81.94140625 C-51.58044518 79.53559299 -49.18334945 77.55045868 -46.68359375 75.49609375 C-44.37040836 73.44052529 -42.49601803 71.10155378 -40.53125 68.71875 C-38.46072322 66.39468932 -36.11548766 64.50750737 -33.71875 62.53125 C-31.95835603 60.96289901 -30.49881443 59.31771111 -29 57.5 C-26.49049642 54.45655948 -23.7549229 52.03476099 -20.71875 49.53125 C-18.95835603 47.96289901 -17.49881443 46.31771111 -16 44.5 C-14.00754657 42.08474478 -11.98125793 40.05029883 -9.5625 38.0625 C-4.47242906 33.84339676 0.23661287 29.06597174 3 23 C1.85760183 21.66372225 0.71098945 20.33104612 -0.4375 19 C-1.07558594 18.2575 -1.71367187 17.515 -2.37109375 16.75 C-2.90863281 16.1725 -3.44617188 15.595 -4 15 C-4.33 15 -4.66 15 -5 15 Z " fill="#FFFFFF" transform="translate(373,74)"/>
<path d="M0 0 C13.798125 -0.061875 27.59625 -0.12375 41.8125 -0.1875 C46.17057861 -0.21481201 50.52865723 -0.24212402 55.01879883 -0.27026367 C60.33728027 -0.28381348 60.33728027 -0.28381348 62.82646179 -0.28633118 C64.56635335 -0.29094037 66.30623528 -0.30149667 68.04606628 -0.31672668 C70.68037587 -0.33863555 73.3140995 -0.34171978 75.94848633 -0.34057617 C76.72463445 -0.3513705 77.50078257 -0.36216482 78.30045033 -0.37328625 C83.51605059 -0.3429054 83.51605059 -0.3429054 85.97612 1.40019226 C87.24549536 3.38358535 87.43305367 4.65233814 87.4375 7 C87.45683594 7.680625 87.47617187 8.36125 87.49609375 9.0625 C87 11 87 11 85.39324951 12.59980774 C82.19046682 14.4736247 79.91392989 14.36084268 76.21191406 14.34057617 C75.52749111 14.34093778 74.84306816 14.34129938 74.13790512 14.34167194 C71.93017719 14.33943902 69.72321636 14.31662347 67.515625 14.29296875 C66.14958054 14.28855594 64.78353102 14.28549661 63.41748047 14.28381348 C58.36157611 14.26810752 53.30578046 14.22622367 48.25 14.1875 C31.29625 14.0946875 31.29625 14.0946875 14 14 C14 47.33 14 80.66 14 115 C47.33 115 80.66 115 115 115 C115.33 105.76 115.66 96.52 116 87 C119 83 119 83 120.9375 82.125 C123.61057868 81.96299523 124.81142219 82.46799553 127 84 C129.77979646 87.86910101 129.30581324 92.29024153 129.30078125 96.8515625 C129.30506638 97.70680511 129.3093515 98.56204773 129.31376648 99.44320679 C129.31949964 101.24695959 129.32001752 103.05073551 129.31567383 104.85449219 C129.31250327 107.62214133 129.33602145 110.38873215 129.36132812 113.15625 C129.36360007 114.90885281 129.3643051 116.66145851 129.36328125 118.4140625 C129.372491 119.2442691 129.38170074 120.07447571 129.39118958 120.92984009 C129.37231445 123.25634766 129.37231445 123.25634766 129 127 C125.71055876 129.19296083 124.76006718 129.2495243 120.94517517 129.24723816 C119.37829201 129.25352989 119.37829201 129.25352989 117.77975464 129.25994873 C116.63419098 129.25432922 115.48862732 129.24870972 114.30834961 129.24291992 C112.49834724 129.24576744 112.49834724 129.24576744 110.65177917 129.24867249 C107.34191787 129.2517452 104.03230568 129.2458652 100.72247386 129.23571944 C97.26140033 129.22694075 93.80033105 129.22869634 90.33924866 129.2290802 C84.52781924 129.22814356 78.71644203 129.21945903 72.9050293 129.20581055 C66.18113642 129.19007764 59.4573007 129.1848127 52.73339075 129.1855461 C46.27008833 129.18615592 39.80680458 129.18105513 33.34350777 129.17275429 C30.59035662 129.16921909 27.83721207 129.1673907 25.08405876 129.16686058 C21.24343714 129.16567182 17.40286331 129.15596907 13.56225586 129.14526367 C12.41466797 129.14571686 11.26708008 129.14617004 10.0847168 129.14663696 C9.04294785 129.14237198 8.00117889 129.13810699 6.92784119 129.13371277 C6.01916259 129.13203692 5.11048399 129.13036108 4.17426968 129.12863445 C2 129 2 129 0 128 C0 85.76 0 43.52 0 0 Z " fill="#FFFFFF" transform="translate(232,84)"/></svg>