<?xml version="1.0" encoding="UTF-8"?>
<svg version="1.1" xmlns="http://www.w3.org/2000/svg" width="196" height="176">
<path d="M0 0 C3.07334616 0.63201877 4.82652849 2.15553027 6.9375 4.3984375 C6.9375 5.0584375 6.9375 5.7184375 6.9375 6.3984375 C7.83082031 6.79095703 7.83082031 6.79095703 8.7421875 7.19140625 C13.0307199 9.54933598 15.93805292 13.62669041 18.3125 17.8359375 C19.77543598 23.833975 19.55534668 28.68735977 16.51171875 34.14453125 C10.54163359 42.69227105 2.65226142 49.78712774 -5.140625 56.6328125 C-7.41466659 58.69892173 -9.41254258 60.908471 -11.41015625 63.2421875 C-15.08998723 67.52040586 -19.10223183 71.3296466 -23.25 75.1484375 C-32.3264964 83.60325607 -41.34411459 92.07028009 -49.40625 101.515625 C-53.25077917 105.88605675 -57.21035583 110.16367472 -62.0625 113.3984375 C-63.0525 113.3984375 -64.0425 113.3984375 -65.0625 113.3984375 C-65.206875 114.0378125 -65.35125 114.6771875 -65.5 115.3359375 C-66.0625 117.3984375 -66.0625 117.3984375 -67.0625 118.3984375 C-71.02202261 119.05835794 -73.01101365 119.00500015 -76.52734375 116.9765625 C-78.91200094 115.21349842 -81.08118654 113.60888245 -83.0625 111.3984375 C-83.0625 110.0784375 -83.0625 108.7584375 -83.0625 107.3984375 C-83.619375 107.3365625 -84.17625 107.2746875 -84.75 107.2109375 C-88.05318042 106.0503606 -89.78144733 103.99630304 -92.0625 101.3984375 C-92.0625 100.7384375 -92.0625 100.0784375 -92.0625 99.3984375 C-93.3825 98.7384375 -94.7025 98.0784375 -96.0625 97.3984375 C-96.0625 96.4084375 -96.0625 95.4184375 -96.0625 94.3984375 C-96.63991943 94.30780029 -97.21733887 94.21716309 -97.81225586 94.1237793 C-100.63740284 93.2131238 -101.96663422 91.88217019 -104.06640625 89.79296875 C-104.80697266 89.05626953 -105.54753906 88.31957031 -106.31054688 87.56054688 C-107.07431641 86.78517578 -107.83808594 86.00980469 -108.625 85.2109375 C-109.39263672 84.45490234 -110.16027344 83.69886719 -110.95117188 82.91992188 C-116.52183798 77.32011541 -120.47516186 72.75505693 -120.5625 64.5234375 C-120.40602772 58.50298022 -118.81831445 54.99802396 -115.0625 50.3984375 C-114.64355469 49.83253906 -114.22460938 49.26664063 -113.79296875 48.68359375 C-111.27079004 45.40876488 -108.92348327 42.92487275 -105.0625 41.3984375 C-98.69053652 41.18603872 -95.20521795 43.12918741 -90.359375 47.15625 C-86.96623204 50.46860384 -84.12208842 54.14106404 -81.30078125 57.9453125 C-78.71400213 60.7803863 -76.69167356 62.14988999 -73.0625 63.3984375 C-64.97445396 61.57680551 -58.59511188 53.14163174 -53.47265625 47.0625 C-52.0625 45.3984375 -52.0625 45.3984375 -50.0625 43.3984375 C-49.0725 43.3984375 -48.0825 43.3984375 -47.0625 43.3984375 C-46.98128906 42.58632812 -46.98128906 42.58632812 -46.8984375 41.7578125 C-45.67685958 38.30999444 -43.24924535 36.15106565 -40.6875 33.6484375 C-40.1925 33.14183594 -39.6975 32.63523438 -39.1875 32.11328125 C-35.44261708 28.3984375 -35.44261708 28.3984375 -32.0625 28.3984375 C-32.0625 27.7384375 -32.0625 27.0784375 -32.0625 26.3984375 C-31.4025 26.3984375 -30.7425 26.3984375 -30.0625 26.3984375 C-29.97709961 25.82480469 -29.89169922 25.25117187 -29.80371094 24.66015625 C-28.84688582 21.74051597 -27.38560306 20.36496978 -25.203125 18.2109375 C-24.02363281 17.03917969 -24.02363281 17.03917969 -22.8203125 15.84375 C-21.57894531 14.63332031 -21.57894531 14.63332031 -20.3125 13.3984375 C-19.50039062 12.59148438 -18.68828125 11.78453125 -17.8515625 10.953125 C-6.43288895 -0.31677105 -6.43288895 -0.31677105 0 0 Z M-3.0625 16.3984375 C-3.3925 17.3884375 -3.7225 18.3784375 -4.0625 19.3984375 C-5.734375 21.08203125 -5.734375 21.08203125 -7.8125 22.8359375 C-8.52921875 23.44824219 -9.2459375 24.06054688 -9.984375 24.69140625 C-11.64259765 26.05351771 -13.34574958 27.36087469 -15.0625 28.6484375 C-15.7225 29.2259375 -16.3825 29.8034375 -17.0625 30.3984375 C-17.0625 31.3884375 -17.0625 32.3784375 -17.0625 33.3984375 C-17.805 33.6459375 -18.5475 33.8934375 -19.3125 34.1484375 C-22.31223455 35.5119532 -23.98327267 36.85715965 -26.0625 39.3984375 C-26.0625 40.3884375 -26.0625 41.3784375 -26.0625 42.3984375 C-26.64773437 42.65496094 -27.23296875 42.91148438 -27.8359375 43.17578125 C-30.25484608 44.50405912 -31.79448872 45.96368551 -33.6875 47.9609375 C-36.86805556 51.30121528 -36.86805556 51.30121528 -39.0625 52.3984375 C-39.0625 53.3884375 -39.0625 54.3784375 -39.0625 55.3984375 C-41.0425 55.8934375 -41.0425 55.8934375 -43.0625 56.3984375 C-43.0625 57.3884375 -43.0625 58.3784375 -43.0625 59.3984375 C-43.805 59.6459375 -44.5475 59.8934375 -45.3125 60.1484375 C-48.31223455 61.5119532 -49.98327267 62.85715965 -52.0625 65.3984375 C-52.0625 66.3884375 -52.0625 67.3784375 -52.0625 68.3984375 C-52.805 68.6459375 -53.5475 68.8934375 -54.3125 69.1484375 C-57.31223455 70.5119532 -58.98327267 71.85715965 -61.0625 74.3984375 C-61.0625 75.3884375 -61.0625 76.3784375 -61.0625 77.3984375 C-64.87590193 78.04752719 -68.63188676 78.51412801 -72.5 78.6484375 C-73.17933594 78.67421875 -73.85867187 78.7 -74.55859375 78.7265625 C-83.22410317 77.59098872 -87.76705569 73.35518169 -93.5625 67.2109375 C-94.65304688 66.08655273 -94.65304688 66.08655273 -95.765625 64.93945312 C-97.54324209 63.10336179 -99.3080516 61.2566333 -101.0625 59.3984375 C-102.5475 59.8934375 -102.5475 59.8934375 -104.0625 60.3984375 C-104.56452584 63.8409004 -104.89595212 66.16987122 -102.89501953 69.11938477 C-102.35474121 69.70776123 -101.81446289 70.2961377 -101.2578125 70.90234375 C-100.62125732 71.59730957 -99.98470215 72.29227539 -99.32885742 73.00830078 C-98.58095947 73.7970459 -97.83306152 74.58579102 -97.0625 75.3984375 C-96.19278564 76.31737793 -95.32307129 77.23631836 -94.42700195 78.18310547 C-91.9888354 80.73835398 -89.51998977 83.26167447 -87.03735352 85.77368164 C-86.00529145 86.82246125 -84.97864664 87.87659719 -83.95727539 88.93579102 C-82.46140491 90.48643784 -80.94972065 92.01996506 -79.43359375 93.55078125 C-78.54599365 94.45820068 -77.65839355 95.36562012 -76.74389648 96.30053711 C-73.54249765 98.80528264 -72.12905028 99.42657677 -68.0625 99.3984375 C-65.32345627 97.7014794 -63.21439622 95.44431507 -60.98730469 93.13378906 C-60.30689117 92.45600403 -59.62647766 91.77821899 -58.92544556 91.07989502 C-56.67796477 88.83263609 -54.45641285 86.56145945 -52.234375 84.2890625 C-50.6797835 82.72395216 -49.12371181 81.16031079 -47.56622314 79.5980835 C-43.46757472 75.47836838 -39.39080252 71.33762703 -35.31774902 67.19262695 C-31.98753984 63.81065454 -28.64250274 60.44357058 -25.29648972 57.0772438 C-18.388771 50.12718633 -11.49069444 43.16745144 -4.62011719 36.18066406 C-3.66321487 35.21265869 -3.66321487 35.21265869 -2.6869812 34.22509766 C-2.10391205 33.63053772 -1.5208429 33.03597778 -0.92010498 32.42340088 C-0.41353741 31.90866337 0.09303017 31.39392586 0.61494827 30.86359024 C3.18670828 28.12297313 3.18670828 28.12297313 3.875 24.5859375 C2.46376101 21.29304652 0.34656982 19.0484143 -2.0625 16.3984375 C-2.3925 16.3984375 -2.7225 16.3984375 -3.0625 16.3984375 Z " fill="#FFFFFF" transform="translate(167.0625,14.6015625)"/>
<path d="M0 0 C0.74562195 -0.0065712 1.4912439 -0.0131424 2.25946045 -0.01991272 C4.70202764 -0.03946495 7.14453424 -0.05126051 9.5871582 -0.0612793 C10.84430099 -0.06739259 10.84430099 -0.06739259 12.12684059 -0.07362938 C16.55347058 -0.09440157 20.98007027 -0.10874761 25.40673828 -0.11816406 C29.97668886 -0.12927845 34.54615924 -0.16376058 39.11593914 -0.20333576 C42.63579731 -0.22944256 46.15553913 -0.23785002 49.67548561 -0.24144554 C51.3608205 -0.246318 53.04614997 -0.25795079 54.73139 -0.27648354 C57.0843423 -0.30077496 59.4360238 -0.29993031 61.7890625 -0.29296875 C62.48369095 -0.30577881 63.1783194 -0.31858887 63.89399719 -0.33178711 C67.27140929 -0.29532957 68.93739857 -0.02871672 71.63264465 2.07917786 C74.25742623 5.59132756 73.67776203 7.88109876 73.20043945 12.17700195 C71.38880678 14.85131685 70.32282868 15.13620554 67.20043945 16.17700195 C65.22327483 16.27088887 63.24306384 16.30493383 61.26367188 16.30639648 C60.041978 16.30954865 58.82028412 16.31270081 57.56156921 16.31594849 C56.22634851 16.31415798 54.89112814 16.31210685 53.5559082 16.30981445 C52.18451419 16.31048832 50.81312029 16.31145904 49.44172668 16.31271362 C46.56595728 16.31418817 43.69021892 16.31204481 40.81445312 16.30737305 C37.13933668 16.30169202 33.46429353 16.30494594 29.7891798 16.31094551 C26.95550492 16.31457144 24.12184719 16.31340293 21.28817177 16.31081772 C19.27749712 16.30983118 17.2668218 16.31285525 15.25614929 16.31594849 C14.02499893 16.31279633 12.79384857 16.30964417 11.52539062 16.30639648 C10.44633957 16.30560089 9.36728851 16.3048053 8.25553894 16.3039856 C5.20043945 16.17700195 5.20043945 16.17700195 -0.79956055 15.17700195 C-0.79956055 48.50700195 -0.79956055 81.83700195 -0.79956055 116.17700195 C32.53043945 116.17700195 65.86043945 116.17700195 100.20043945 116.17700195 C100.20043945 106.93700195 100.20043945 97.69700195 100.20043945 88.17700195 C104.20043945 83.17700195 104.20043945 83.17700195 107.76293945 82.67700195 C111.20043945 83.17700195 111.20043945 83.17700195 113.07543945 84.42700195 C116.95903371 90.46814857 115.50346061 99.61952823 115.55053711 106.54931641 C115.56715646 108.34469511 115.5945245 110.14000607 115.63256836 111.93505859 C115.68718181 114.5277728 115.70917794 117.11894738 115.72387695 119.7121582 C115.75788101 120.91691551 115.75788101 120.91691551 115.79257202 122.14601135 C115.78393555 124.41162109 115.78393555 124.41162109 115.20043945 128.17700195 C111.80037584 130.81065775 109.2401265 131.55149261 104.98776245 131.54449463 C103.95869781 131.55006378 102.92963318 131.55563293 101.86938477 131.56137085 C100.75128418 131.55215607 99.63318359 131.54294128 98.48120117 131.53344727 C97.29535431 131.53549164 96.10950745 131.53753601 94.88772583 131.53964233 C91.64397637 131.54213176 88.40060999 131.53126649 85.15691519 131.51411533 C81.76039006 131.49905246 78.36386861 131.50025276 74.96731567 131.49945068 C69.26615983 131.4957617 63.56512464 131.48081129 57.86401367 131.45825195 C50.54540941 131.42935124 43.22690213 131.41902535 35.90824699 131.41456985 C29.614539 131.41059043 23.32085209 131.39809096 17.02715921 131.38422298 C15.00434193 131.38012536 12.98152539 131.3771991 10.9587059 131.3744278 C7.19272769 131.36757571 3.42683856 131.35394878 -0.33911133 131.33813477 C-2.0223349 131.33645798 -2.0223349 131.33645798 -3.73956299 131.33474731 C-4.76298798 131.32903717 -5.78641296 131.32332703 -6.84085083 131.31744385 C-8.17646655 131.31298185 -8.17646655 131.31298185 -9.53906441 131.30842972 C-11.79956055 131.17700195 -11.79956055 131.17700195 -14.79956055 130.17700195 C-14.79956055 87.60700195 -14.79956055 45.03700195 -14.79956055 1.17700195 C-9.74027655 0.4542471 -5.06161754 0.0197663 0 0 Z " fill="#FFFFFF" transform="translate(42.799560546875,24.822998046875)"/>
</svg>
