<?xml version="1.0" encoding="UTF-8"?>
<svg version="1.1" xmlns="http://www.w3.org/2000/svg" width="625" height="399">
<path d="M0 0 C2.5 2.25 2.5 2.25 5 5 C6.485 6.11375 6.485 6.11375 8 7.25 C12.41005519 10.90600431 15.23991381 15.6853384 16.51953125 21.265625 C17.01654146 27.87701658 14.02386731 32.01680009 10 37 C9.44699219 37.69222656 8.89398438 38.38445312 8.32421875 39.09765625 C4.85931445 43.23164552 1.08731939 46.78666044 -3.015625 50.27734375 C-6.97758952 53.7167657 -10.72146205 57.35027361 -13.9375 61.5 C-16.3449456 64.41811588 -19.04468411 66.71850314 -21.9140625 69.171875 C-25.09864797 71.96286002 -28.03755865 74.97764411 -31 78 C-33.64736778 80.65625157 -36.30432764 83.30233705 -38.97265625 85.9375 C-40.00262733 86.95830996 -41.03257501 87.97914353 -42.0625 89 C-42.8369043 89.76183594 -42.8369043 89.76183594 -43.62695312 90.5390625 C-45.9397754 92.83715343 -48.08432063 95.10540078 -50.125 97.65625 C-51.92072878 99.90091097 -53.74133159 101.6560883 -55.9375 103.5 C-58.36156578 105.56293866 -60.67711122 107.63526041 -62.875 109.9375 C-65 112 -65 112 -67 112 C-67.226875 112.639375 -67.45375 113.27875 -67.6875 113.9375 C-69 116 -69 116 -71.25 117 C-76.30127249 117 -79.30109386 113.6381317 -82.875 110.375 C-85 108 -85 108 -85 106 C-85.8353125 105.690625 -85.8353125 105.690625 -86.6875 105.375 C-89.85990745 103.48870368 -91.67742698 100.84515195 -94 98 C-95.32901064 96.99426222 -96.66073801 95.99204592 -98 95 C-98 94.34 -98 93.68 -98 93 C-98.59039062 92.74863281 -99.18078125 92.49726563 -99.7890625 92.23828125 C-102.27650807 90.84513594 -103.58070723 89.39035239 -105.375 87.1875 C-107.49568917 84.67258015 -109.54470975 82.41662141 -112.125 80.375 C-117.8737732 75.62601344 -120.77510754 71.98901538 -121.89453125 64.57421875 C-122.19087894 57.34113993 -119.17045977 52.87295752 -114.5 47.5625 C-108.52681937 41.20106263 -108.52681937 41.20106263 -104.15234375 40.625 C-96.06752994 41.58676224 -89.55031253 50.23709722 -84.55078125 56.203125 C-80.37222187 61.08905584 -80.37222187 61.08905584 -74.5703125 63.32421875 C-71.39816772 62.92408499 -70.3036575 61.99075679 -68 59.8125 C-67.3090625 59.16667969 -66.618125 58.52085937 -65.90625 57.85546875 C-65.2771875 57.24316406 -64.648125 56.63085938 -64 56 C-63.175 55.21625 -62.35 54.4325 -61.5 53.625 C-58.4724492 50.44607166 -55.61856267 47.13227326 -52.76953125 43.79296875 C-52.18558594 43.20128906 -51.60164063 42.60960937 -51 42 C-50.34 42 -49.68 42 -49 42 C-49 41.34 -49 40.68 -49 40 C-47.6796875 38.73828125 -47.6796875 38.73828125 -45.875 37.3125 C-42.56872653 34.59639299 -39.90985088 31.67219481 -37.26171875 28.3203125 C-36.63716797 27.66675781 -36.63716797 27.66675781 -36 27 C-35.34 27 -34.68 27 -34 27 C-34 26.34 -34 25.68 -34 25 C-33.34 25 -32.68 25 -32 25 C-31.505 23.515 -31.505 23.515 -31 22 C-29.58203125 20.640625 -29.58203125 20.640625 -27.8125 19.25 C-25.26641427 17.15505369 -23.09160183 15.04825883 -21 12.5 C-18.45943855 9.42135716 -15.69862877 6.88439504 -12.61328125 4.359375 C-10.95885441 3.00838323 -10.95885441 3.00838323 -9.41796875 1.390625 C-6.31339665 -1.65407932 -4.03526938 -1.10772101 0 0 Z M-5 15 C-5.33 15.99 -5.66 16.98 -6 18 C-6.86625 18.4021875 -6.86625 18.4021875 -7.75 18.8125 C-10.98257602 20.51858179 -12.7056628 23.18943694 -15 26 C-16.32901064 27.00573778 -17.66073801 28.00795408 -19 29 C-19 29.66 -19 30.32 -19 31 C-19.556875 31.226875 -20.11375 31.45375 -20.6875 31.6875 C-23.66159588 33.37550036 -25.72008865 35.46676517 -28 38 C-28 38.66 -28 39.32 -28 40 C-28.556875 40.20625 -29.11375 40.4125 -29.6875 40.625 C-32.85990745 42.51129632 -34.67742698 45.15484805 -37 48 C-38.32901064 49.00573778 -39.66073801 50.00795408 -41 51 C-41 51.66 -41 52.32 -41 53 C-42.98 53.99 -42.98 53.99 -45 55 C-45 55.66 -45 56.32 -45 57 C-45.556875 57.226875 -46.11375 57.45375 -46.6875 57.6875 C-49.66159588 59.37550036 -51.72008865 61.46676517 -54 64 C-54 64.66 -54 65.32 -54 66 C-54.556875 66.226875 -55.11375 66.45375 -55.6875 66.6875 C-58.66159588 68.37550036 -60.72008865 70.46676517 -63 73 C-63 73.66 -63 74.32 -63 75 C-71.33128318 78.297061 -77.41453185 78.33810295 -85.6875 74.875 C-88.57815395 72.53122653 -90.8375163 69.83739894 -93.23046875 66.99609375 C-95.60345407 64.31928249 -98.20279008 62.22505334 -101 60 C-102.01680311 59.01709032 -103.02738219 58.02665213 -104 57 C-105.70735301 58.03568595 -105.70735301 58.03568595 -107 60 C-106.97283938 64.45977362 -106.2434584 67.1391691 -103.234375 70.3515625 C-102.08793148 71.45847349 -100.92590852 72.54944254 -99.75 73.625 C-99.17636719 74.1715625 -98.60273438 74.718125 -98.01171875 75.28125 C-96.8763017 76.36235325 -95.73564046 77.43797771 -94.58959961 78.5078125 C-91.22432347 81.66686146 -88.01701357 84.98027421 -84.80859375 88.296875 C-83.68499152 89.44801007 -82.56129229 90.59905047 -81.4375 91.75 C-80.87353516 92.33910156 -80.30957031 92.92820312 -79.72851562 93.53515625 C-79.17744141 94.09589844 -78.62636719 94.65664062 -78.05859375 95.234375 C-77.56673584 95.74194336 -77.07487793 96.24951172 -76.56811523 96.77246094 C-74.69416576 98.23941064 -73.36611708 98.75986913 -71 99 C-68.54088679 96.87685203 -68.54088679 96.87685203 -66 94 C-64.88624492 93.04916833 -63.76054742 92.11219633 -62.625 91.1875 C-59.29393841 88.38277498 -56.565207 85.25584808 -53.75390625 81.94140625 C-51.58044518 79.53559299 -49.18334945 77.55045868 -46.68359375 75.49609375 C-44.37040836 73.44052529 -42.49601803 71.10155378 -40.53125 68.71875 C-38.46072322 66.39468932 -36.11548766 64.50750737 -33.71875 62.53125 C-31.95835603 60.96289901 -30.49881443 59.31771111 -29 57.5 C-26.49049642 54.45655948 -23.7549229 52.03476099 -20.71875 49.53125 C-18.95835603 47.96289901 -17.49881443 46.31771111 -16 44.5 C-14.00754657 42.08474478 -11.98125793 40.05029883 -9.5625 38.0625 C-4.47242906 33.84339676 0.23661287 29.06597174 3 23 C1.85760183 21.66372225 0.71098945 20.33104612 -0.4375 19 C-1.07558594 18.2575 -1.71367187 17.515 -2.37109375 16.75 C-2.90863281 16.1725 -3.44617188 15.595 -4 15 C-4.33 15 -4.66 15 -5 15 Z " fill="#FFFFFF" transform="translate(373,74)"/>
<path d="M0 0 C13.798125 -0.061875 27.59625 -0.12375 41.8125 -0.1875 C46.17057861 -0.21481201 50.52865723 -0.24212402 55.01879883 -0.27026367 C60.33728027 -0.28381348 60.33728027 -0.28381348 62.82646179 -0.28633118 C64.56635335 -0.29094037 66.30623528 -0.30149667 68.04606628 -0.31672668 C70.68037587 -0.33863555 73.3140995 -0.34171978 75.94848633 -0.34057617 C76.72463445 -0.3513705 77.50078257 -0.36216482 78.30045033 -0.37328625 C83.51605059 -0.3429054 83.51605059 -0.3429054 85.97612 1.40019226 C87.24549536 3.38358535 87.43305367 4.65233814 87.4375 7 C87.45683594 7.680625 87.47617187 8.36125 87.49609375 9.0625 C87 11 87 11 85.39324951 12.59980774 C82.19046682 14.4736247 79.91392989 14.36084268 76.21191406 14.34057617 C75.52749111 14.34093778 74.84306816 14.34129938 74.13790512 14.34167194 C71.93017719 14.33943902 69.72321636 14.31662347 67.515625 14.29296875 C66.14958054 14.28855594 64.78353102 14.28549661 63.41748047 14.28381348 C58.36157611 14.26810752 53.30578046 14.22622367 48.25 14.1875 C31.29625 14.0946875 31.29625 14.0946875 14 14 C14 47.33 14 80.66 14 115 C47.33 115 80.66 115 115 115 C115.33 105.76 115.66 96.52 116 87 C119 83 119 83 120.9375 82.125 C123.61057868 81.96299523 124.81142219 82.46799553 127 84 C129.77979646 87.86910101 129.30581324 92.29024153 129.30078125 96.8515625 C129.30506638 97.70680511 129.3093515 98.56204773 129.31376648 99.44320679 C129.31949964 101.24695959 129.32001752 103.05073551 129.31567383 104.85449219 C129.31250327 107.62214133 129.33602145 110.38873215 129.36132812 113.15625 C129.36360007 114.90885281 129.3643051 116.66145851 129.36328125 118.4140625 C129.372491 119.2442691 129.38170074 120.07447571 129.39118958 120.92984009 C129.37231445 123.25634766 129.37231445 123.25634766 129 127 C125.71055876 129.19296083 124.76006718 129.2495243 120.94517517 129.24723816 C119.37829201 129.25352989 119.37829201 129.25352989 117.77975464 129.25994873 C116.63419098 129.25432922 115.48862732 129.24870972 114.30834961 129.24291992 C112.49834724 129.24576744 112.49834724 129.24576744 110.65177917 129.24867249 C107.34191787 129.2517452 104.03230568 129.2458652 100.72247386 129.23571944 C97.26140033 129.22694075 93.80033105 129.22869634 90.33924866 129.2290802 C84.52781924 129.22814356 78.71644203 129.21945903 72.9050293 129.20581055 C66.18113642 129.19007764 59.4573007 129.1848127 52.73339075 129.1855461 C46.27008833 129.18615592 39.80680458 129.18105513 33.34350777 129.17275429 C30.59035662 129.16921909 27.83721207 129.1673907 25.08405876 129.16686058 C21.24343714 129.16567182 17.40286331 129.15596907 13.56225586 129.14526367 C12.41466797 129.14571686 11.26708008 129.14617004 10.0847168 129.14663696 C9.04294785 129.14237198 8.00117889 129.13810699 6.92784119 129.13371277 C6.01916259 129.13203692 5.11048399 129.13036108 4.17426968 129.12863445 C2 129 2 129 0 128 C0 85.76 0 43.52 0 0 Z " fill="#FFFFFF" transform="translate(232,84)"/>
<path d="M0 0 C0.886875 -0.01417969 1.77375 -0.02835938 2.6875 -0.04296875 C5 0.1875 5 0.1875 7 2.1875 C7.24291992 5.30444336 7.24291992 5.30444336 7.23046875 9.27734375 C7.22978142 10.32783653 7.22978142 10.32783653 7.2290802 11.39955139 C7.22605786 12.88153781 7.21817207 14.36352104 7.20581055 15.84545898 C7.18759975 18.11258218 7.18530058 20.3792958 7.18554688 22.64648438 C7.14763617 33.74459148 7.14763617 33.74459148 6 37.1875 C8.64 37.1875 11.28 37.1875 14 37.1875 C13.98428955 36.13771973 13.9685791 35.08793945 13.95239258 34.00634766 C13.89817381 30.11889288 13.8636796 26.23147163 13.83520508 22.34375 C13.82009997 20.6597736 13.79961454 18.97583665 13.77368164 17.29199219 C13.73737279 14.87425007 13.72029153 12.45702708 13.70703125 10.0390625 C13.69154739 9.2838028 13.67606354 8.52854309 13.66011047 7.75039673 C13.65942383 5.62744141 13.65942383 5.62744141 14 2.1875 C17.13411302 0.09809132 17.97450472 -0.08614412 21.5625 -0.0625 C22.74005859 -0.07023438 22.74005859 -0.07023438 23.94140625 -0.078125 C26 0.1875 26 0.1875 28 2.1875 C28.18806596 4.92854769 28.25178404 7.56774287 28.22705078 10.30908203 C28.22734283 11.14818115 28.22763489 11.98728027 28.22793579 12.85180664 C28.22653933 15.63307944 28.21096335 18.41408634 28.1953125 21.1953125 C28.19158349 23.12059381 28.18873599 25.04587701 28.18673706 26.97116089 C28.17909176 32.0445477 28.1594356 37.11782044 28.1373291 42.19116211 C28.11688995 47.36570696 28.10773948 52.54027019 28.09765625 57.71484375 C28.07619054 67.87244602 28.04204381 78.02996353 28 88.1875 C25.22330178 89.11306607 23.32303105 89.38045491 20.4375 89.4375 C19.65246094 89.46328125 18.86742187 89.4890625 18.05859375 89.515625 C17.37925781 89.40734375 16.69992188 89.2990625 16 89.1875 C13.41004559 85.30256838 13.74774458 82.08182764 13.8046875 77.58203125 C13.8075174 76.74282639 13.81034729 75.90362152 13.81326294 75.03898621 C13.82445615 72.35917897 13.84955899 69.67970619 13.875 67 C13.88503092 65.18294754 13.89415657 63.36588983 13.90234375 61.54882812 C13.92439266 57.09492325 13.95891649 52.64126833 14 48.1875 C10.535 48.6825 10.535 48.6825 7 49.1875 C7.01160156 50.24324219 7.02320313 51.29898438 7.03515625 52.38671875 C7.10050492 61.18667103 6.96154483 69.95814143 6.5625 78.75 C6.52326416 79.67192139 6.48402832 80.59384277 6.44360352 81.54370117 C6.40162842 82.39681885 6.35965332 83.24993652 6.31640625 84.12890625 C6.26141968 85.26888062 6.26141968 85.26888062 6.20532227 86.43188477 C6 88.1875 6 88.1875 5 89.1875 C3.0390625 89.35546875 3.0390625 89.35546875 0.625 89.375 C-0.16648438 89.38917969 -0.95796875 89.40335937 -1.7734375 89.41796875 C-4 89.1875 -4 89.1875 -7 87.1875 C-7.28624875 84.40613025 -7.37823168 81.84831207 -7.34057617 79.06591797 C-7.34101425 78.22681885 -7.34145233 77.38771973 -7.34190369 76.52319336 C-7.3398089 73.74179035 -7.31644563 70.96098557 -7.29296875 68.1796875 C-7.28737524 66.25440805 -7.28310399 64.32912435 -7.28010559 62.40383911 C-7.26863749 57.33038597 -7.23915346 52.25718946 -7.20599365 47.18383789 C-7.17533505 42.00931267 -7.16160927 36.83474607 -7.14648438 31.66015625 C-7.11428561 21.50249125 -7.06306559 11.34501695 -7 1.1875 C-4.52224905 -0.05137548 -2.76346293 0.02008331 0 0 Z " fill="#FFFFFF" transform="translate(162,232.8125)"/>
<path d="M0 0 C19.44902794 0.09328071 19.44902794 0.09328071 24.4296875 3.78125 C29.55101501 9.39032298 29.57763454 15.08959821 29.5703125 22.453125 C29.57023193 23.2061792 29.57015137 23.9592334 29.57006836 24.73510742 C29.50443072 31.16690556 28.73226991 37.21725277 26.69140625 43.33984375 C26.10742132 45.5885156 26.10742132 45.5885156 28.3828125 48.265625 C28.82918327 50.95613671 29.17791033 53.58469192 29.453125 56.29296875 C29.53907928 57.07829483 29.62503357 57.86362091 29.71359253 58.67274475 C29.89378518 60.33244371 30.0700516 61.99257296 30.24267578 63.65307617 C30.5065393 66.19087956 30.78144979 68.72728776 31.05859375 71.26367188 C31.2324164 72.87753477 31.40561428 74.4914651 31.578125 76.10546875 C31.69995651 77.24156837 31.69995651 77.24156837 31.82424927 78.40061951 C32.16787666 81.71781528 32.3828125 84.92570252 32.3828125 88.265625 C29.88141648 89.51632301 28.10888559 89.39864967 25.3203125 89.390625 C23.97259766 89.39449219 23.97259766 89.39449219 22.59765625 89.3984375 C20.3828125 89.265625 20.3828125 89.265625 19.3828125 88.265625 C19.17804516 86.47113218 19.03496506 84.66953208 18.91796875 82.8671875 C18.83998047 81.74699219 18.76199219 80.62679687 18.68164062 79.47265625 C18.52667147 77.12378485 18.37298072 74.77482868 18.22070312 72.42578125 C17.74156479 60.52345618 17.74156479 60.52345618 14.3828125 49.265625 C11.35346759 48.60790072 11.35346759 48.60790072 8.3828125 48.265625 C8.39328613 49.43657715 8.40375977 50.6075293 8.41455078 51.81396484 C8.45068747 56.14873205 8.47368983 60.48348589 8.49267578 64.81835938 C8.50274784 66.69631182 8.51640612 68.57424853 8.53369141 70.45214844 C8.55788703 73.1478259 8.56928333 75.84329646 8.578125 78.5390625 C8.58844757 79.38181732 8.59877014 80.22457214 8.60940552 81.09286499 C8.60980394 83.15183747 8.50538838 85.21030435 8.3828125 87.265625 C6.3828125 89.265625 6.3828125 89.265625 4.2890625 89.53125 C3.495 89.52609375 2.7009375 89.5209375 1.8828125 89.515625 C1.08875 89.52078125 0.2946875 89.5259375 -0.5234375 89.53125 C-2.6171875 89.265625 -2.6171875 89.265625 -4.6171875 87.265625 C-4.81570328 84.56579125 -4.88991535 81.96853085 -4.87597656 79.26757812 C-4.8794812 78.44144516 -4.88298584 77.61531219 -4.88659668 76.7641449 C-4.89542131 74.02497022 -4.8895623 71.28605244 -4.8828125 68.546875 C-4.88415894 66.6488032 -4.8860993 64.75073174 -4.88861084 62.85266113 C-4.89156309 58.87130455 -4.88726121 54.89003759 -4.87792969 50.90869141 C-4.8665351 45.79709997 -4.87309403 40.68571855 -4.88507462 35.57413483 C-4.89229048 31.65373137 -4.89000655 27.73337796 -4.88481903 23.81297302 C-4.88348178 21.92785111 -4.88513289 20.0427247 -4.88977814 18.15760803 C-4.8948389 15.52617295 -4.88713958 12.89508128 -4.87597656 10.26367188 C-4.88204926 9.08695168 -4.88204926 9.08695168 -4.88824463 7.88645935 C-4.82991081 0.4901999 -4.82991081 0.4901999 0 0 Z M8.3828125 12.265625 C8.3828125 20.515625 8.3828125 28.765625 8.3828125 37.265625 C13.07508382 38.77256782 13.07508382 38.77256782 15.671875 36.9609375 C18.29662307 32.8260604 17.8865703 28.9317705 17.7578125 24.140625 C17.75652344 23.22152344 17.75523437 22.30242187 17.75390625 21.35546875 C17.97457385 16.28265144 17.97457385 16.28265144 15.3828125 12.265625 C13.0728125 12.265625 10.7628125 12.265625 8.3828125 12.265625 Z " fill="#FFFFFF" transform="translate(408.6171875,232.734375)"/>
<path d="M0 0 C4.36401196 2.51769921 6.38694275 5.11425662 7.8984375 9.94921875 C9.88171286 18.18412295 10.40599197 26.56765791 10.41796875 35.01171875 C10.42296135 36.27457451 10.42296135 36.27457451 10.42805481 37.5629425 C10.43308297 39.33354147 10.43546442 41.10414977 10.43530273 42.87475586 C10.43748031 45.53841352 10.45565586 48.20165016 10.47460938 50.86523438 C10.56898592 78.9984565 10.56898592 78.9984565 4.25 85.875 C0.53250839 89.46857523 -3.0894186 89.86633361 -8.1484375 89.8828125 C-12.52406695 89.65943202 -15.32438944 89.11488959 -19.1875 86.9375 C-26.10587094 78.66920302 -25.90576689 66.77304071 -25.91796875 56.48046875 C-25.92129715 55.49307205 -25.92462555 54.50567535 -25.92805481 53.48835754 C-25.93309934 51.40654971 -25.9354639 49.32473386 -25.93530273 47.24291992 C-25.93748581 44.08303285 -25.95565879 40.92349716 -25.97460938 37.76367188 C-25.97754462 35.73177201 -25.97952854 33.69987051 -25.98046875 31.66796875 C-25.98765427 30.73534714 -25.99483978 29.80272552 -26.00224304 28.84184265 C-25.97273441 20.23270995 -25.0111829 11.48425518 -20.75 3.875 C-14.14006992 -1.35786131 -7.97777285 -2.39333186 0 0 Z M-9.75 10.875 C-12.63738815 14.10246548 -13.12781967 16.18930343 -13.13818359 20.48217773 C-13.14764008 21.60692001 -13.15709656 22.73166229 -13.1668396 23.89048767 C-13.16076691 25.10096268 -13.15469421 26.31143768 -13.1484375 27.55859375 C-13.15130768 28.80625015 -13.15417786 30.05390656 -13.15713501 31.33937073 C-13.15917681 33.9782736 -13.15514824 36.61634316 -13.14111328 39.25512695 C-13.12403869 42.62898586 -13.13385432 46.00212785 -13.15183067 49.37596035 C-13.16531233 52.60353009 -13.15585671 55.83101463 -13.1484375 59.05859375 C-13.15451019 60.26704453 -13.16058289 61.4754953 -13.1668396 62.7205658 C-13.15738312 63.84846024 -13.14792664 64.97635468 -13.13818359 66.13842773 C-13.13579681 67.12785873 -13.13341003 68.11728973 -13.13095093 69.13670349 C-12.68033455 72.37575914 -11.72284697 74.28128185 -9.75 76.875 C-7.12305578 77.29280879 -7.12305578 77.29280879 -4.75 76.875 C-2.92892321 69.88501286 -2.45600578 63.47605464 -2.484375 56.26953125 C-2.48246155 55.18669357 -2.4805481 54.1038559 -2.47857666 52.98820496 C-2.47722288 50.71324428 -2.48086258 48.43827567 -2.48925781 46.16333008 C-2.50000004 42.68748654 -2.48931873 39.21215611 -2.4765625 35.73632812 C-2.47788363 33.51822803 -2.48044505 31.30012826 -2.484375 29.08203125 C-2.48032654 28.04754349 -2.47627808 27.01305573 -2.47210693 25.94721985 C-2.50511322 20.8607453 -2.71470982 16.63428455 -4.75 11.875 C-6.4 11.545 -8.05 11.215 -9.75 10.875 Z " fill="#FFFFFF" transform="translate(319.75,233.125)"/>
<path d="M0 0 C4.62 0 9.24 0 14 0 C15.52065547 9.83017866 16.48823933 19.50528711 17.0625 29.4375 C17.21757858 32.04051313 17.37505063 34.64338499 17.53515625 37.24609375 C17.600979 38.37716553 17.66680176 39.5082373 17.73461914 40.67358398 C18.01157255 44.1450561 18.47338494 47.55830166 19 51 C19.63090232 46.41746346 20.25532302 41.8340667 20.875 37.25 C20.96681549 36.57160065 21.05863098 35.89320129 21.15322876 35.19424438 C22.43203556 25.70628216 23.58125876 16.21880356 24.40380859 6.67871094 C24.90157491 1.09842509 24.90157491 1.09842509 26 0 C28.01964199 -0.07244053 30.04167124 -0.08377188 32.0625 -0.0625 C33.71958984 -0.04896484 33.71958984 -0.04896484 35.41015625 -0.03515625 C36.26480469 -0.02355469 37.11945313 -0.01195312 38 0 C38.15750818 6.94815248 37.72267512 13.64002216 36.828125 20.52734375 C36.70570435 21.50681976 36.58328369 22.48629578 36.45715332 23.49545288 C36.06149401 26.64369672 35.65638103 29.79062358 35.25 32.9375 C34.97417126 35.10114125 34.69845554 37.26479691 34.42285156 39.4284668 C32.93281673 51.06537569 31.41710479 62.69948752 29.75 74.3125 C29.59950195 75.38814209 29.44900391 76.46378418 29.29394531 77.57202148 C29.15053711 78.53438721 29.00712891 79.49675293 28.859375 80.48828125 C28.68100098 81.70318237 28.68100098 81.70318237 28.49902344 82.94262695 C28 85 28 85 26 88 C23.25 88.328125 23.25 88.328125 20 88.25 C18.9275 88.23453125 17.855 88.2190625 16.75 88.203125 C14 88 14 88 12 87 C10.85294661 83.55883983 10.50915173 80.20891452 10.125 76.625 C8.4990225 62.24361613 6.35986401 47.95515653 3.9375 33.6875 C0 10.45773445 0 10.45773445 0 0 Z " fill="#FFFFFF" transform="translate(251,234)"/>
<path d="M0 0 C4.38622842 3.68841935 7.2249486 7.53693462 7.75 13.3125 C7.81680918 16.64781987 7.80828773 19.97714664 7.75 23.3125 C5.95991533 23.53401549 4.16781838 23.73932213 2.375 23.9375 C1.37726563 24.05351562 0.37953125 24.16953125 -0.6484375 24.2890625 C-1.50695312 24.29679687 -2.36546875 24.30453125 -3.25 24.3125 C-5.87451617 21.68798383 -5.8332868 19.8247172 -6.375 16.1875 C-6.54257812 15.09179688 -6.71015625 13.99609375 -6.8828125 12.8671875 C-7.00398438 12.02414063 -7.12515625 11.18109375 -7.25 10.3125 C-8.57 10.6425 -9.89 10.9725 -11.25 11.3125 C-12.16317497 14.4570622 -12.44447452 17.35362362 -12.5 20.625 C-12.52578125 21.52863281 -12.5515625 22.43226563 -12.578125 23.36328125 C-11.82316369 30.14894538 -9.31892407 33.7170481 -4.15625 37.8515625 C-3.21265625 38.57472656 -3.21265625 38.57472656 -2.25 39.3125 C3.82415512 43.96769265 6.54656931 47.49877725 8.4375 55.0625 C9.33517081 64.39827646 9.70244061 74.86184041 5.125 83.3125 C0.87207122 86.89391371 -3.77106499 88.44001844 -9.3125 88.6875 C-14.93066204 88.15243695 -18.67798176 87.01197918 -22.5625 82.8125 C-26.15969728 75.35164638 -26.51773072 67.478287 -26.25 59.3125 C-21.96 59.3125 -17.67 59.3125 -13.25 59.3125 C-11.25 71.9375 -11.25 71.9375 -11.25 75.3125 C-9.27463255 74.96463292 -9.27463255 74.96463292 -7.25 74.3125 C-5.70088179 71.21426359 -6.02435603 67.96016609 -6 64.5625 C-5.979375 63.85867188 -5.95875 63.15484375 -5.9375 62.4296875 C-5.90206283 57.6633885 -6.53190101 54.38673832 -9.25 50.3125 C-11.78459184 48.12417526 -11.78459184 48.12417526 -14.6875 46.3125 C-21.20465554 41.79004114 -24.11425849 38.05680641 -26.25 30.3125 C-26.55167237 27.3702195 -26.58377759 24.45604261 -26.5625 21.5 C-26.55758545 20.70190918 -26.5526709 19.90381836 -26.54760742 19.08154297 C-26.40809958 12.07753411 -25.90808744 6.19209473 -21 0.875 C-13.79267672 -3.22007004 -7.31104855 -3.79612136 0 0 Z " fill="#FFFFFF" transform="translate(496.25,234.6875)"/>
<path d="M0 0 C0.92232422 -0.00257813 1.84464844 -0.00515625 2.79492188 -0.0078125 C3.74560547 -0.00007812 4.69628906 0.00765625 5.67578125 0.015625 C6.63806641 0.00789062 7.60035156 0.00015625 8.59179688 -0.0078125 C9.96948242 -0.00394531 9.96948242 -0.00394531 11.375 0 C12.63123169 0.00338379 12.63123169 0.00338379 13.9128418 0.00683594 C15.98828125 0.265625 15.98828125 0.265625 17.98828125 2.265625 C18.21875 4.39453125 18.21875 4.39453125 18.17578125 6.828125 C18.16933594 7.63378906 18.16289062 8.43945312 18.15625 9.26953125 C17.98828125 11.265625 17.98828125 11.265625 16.98828125 12.265625 C12.65297207 12.40955957 8.32670394 12.30774561 3.98828125 12.265625 C3.98828125 20.515625 3.98828125 28.765625 3.98828125 37.265625 C6.95828125 37.265625 9.92828125 37.265625 12.98828125 37.265625 C13.64828125 37.595625 14.30828125 37.925625 14.98828125 38.265625 C14.98828125 41.565625 14.98828125 44.865625 14.98828125 48.265625 C11.35828125 48.265625 7.72828125 48.265625 3.98828125 48.265625 C3.98828125 57.505625 3.98828125 66.745625 3.98828125 76.265625 C7.94828125 76.265625 11.90828125 76.265625 15.98828125 76.265625 C17.98828125 78.265625 17.98828125 78.265625 18.18359375 80.6484375 C18.16039062 81.55335938 18.1371875 82.45828125 18.11328125 83.390625 C18.09523437 84.30070312 18.0771875 85.21078125 18.05859375 86.1484375 C18.03539062 86.84710938 18.0121875 87.54578125 17.98828125 88.265625 C13.86965834 90.32493645 8.5146908 89.45051762 3.98828125 89.453125 C2.30992187 89.47149414 2.30992187 89.47149414 0.59765625 89.49023438 C-1.00335938 89.49313477 -1.00335938 89.49313477 -2.63671875 89.49609375 C-3.61898437 89.50020264 -4.60125 89.50431152 -5.61328125 89.50854492 C-8.01171875 89.265625 -8.01171875 89.265625 -10.01171875 87.265625 C-10.19974828 84.55478842 -10.26352048 81.94695226 -10.23876953 79.23583984 C-10.23906158 78.40649429 -10.23935364 77.57714874 -10.23965454 76.72267151 C-10.23825814 73.97386308 -10.22268243 71.22532373 -10.20703125 68.4765625 C-10.20330222 66.57370146 -10.20045473 64.6708385 -10.19845581 62.76797485 C-10.19081067 57.75377117 -10.17115464 52.73968291 -10.14904785 47.7255249 C-10.12860837 42.61130332 -10.11945816 37.49706313 -10.109375 32.3828125 C-10.08790956 22.34369922 -10.05376302 12.3046717 -10.01171875 2.265625 C-6.48728547 0.7876228 -3.83444774 0.01028692 0 0 Z " fill="#FFFFFF" transform="translate(208.01171875,232.734375)"/>
<path d="M0 0 C0.02688151 1.64574566 0.04634123 3.29161413 0.0625 4.9375 C0.07410156 5.85402344 0.08570313 6.77054688 0.09765625 7.71484375 C0 10 0 10 -1 11 C-4.96 11 -8.92 11 -13 11 C-13 19.25 -13 27.5 -13 36 C-10.03 36 -7.06 36 -4 36 C-3.01 36.66 -2.02 37.32 -1 38 C-0.52885262 40.7427508 -0.82194216 43.19558897 -1 46 C-1.33 46.33 -1.66 46.66 -2 47 C-5.63 47 -9.26 47 -13 47 C-13 56.24 -13 65.48 -13 75 C-9.37 75 -5.74 75 -2 75 C-1.34 75.33 -0.68 75.66 0 76 C0 79.63 0 83.26 0 87 C-2.54275549 88.27137774 -4.34808201 88.129425 -7.19140625 88.1328125 C-8.21814453 88.13410156 -9.24488281 88.13539063 -10.30273438 88.13671875 C-11.37845703 88.13285156 -12.45417969 88.12898438 -13.5625 88.125 C-14.64208984 88.12886719 -15.72167969 88.13273437 -16.83398438 88.13671875 C-18.3721582 88.13478516 -18.3721582 88.13478516 -19.94140625 88.1328125 C-20.88701416 88.13168457 -21.83262207 88.13055664 -22.80688477 88.12939453 C-25 88 -25 88 -26 87 C-26.1222383 85.65705275 -26.17773542 84.30793357 -26.20532227 82.9597168 C-26.22525742 82.09375885 -26.24519257 81.2278009 -26.26573181 80.33560181 C-26.28245438 79.3830954 -26.29917694 78.43058899 -26.31640625 77.44921875 C-26.33727798 76.45932953 -26.35814972 75.46944031 -26.37965393 74.44955444 C-26.44620314 71.1956193 -26.50485795 67.94160435 -26.5625 64.6875 C-26.58334656 63.58719452 -26.60419312 62.48688904 -26.62567139 61.35324097 C-26.90463249 46.59022642 -27.10159398 31.82821565 -27.125 17.0625 C-27.1275882 16.29674652 -27.13017639 15.53099304 -27.13284302 14.74203491 C-27.13859846 12.61052544 -27.13719406 10.4791661 -27.1328125 8.34765625 C-27.13168457 7.16179932 -27.13055664 5.97594238 -27.12939453 4.75415039 C-27 2 -27 2 -26 0 C-22.79224458 -0.19840395 -19.58379499 -0.38175425 -16.375 -0.5625 C-15.47136719 -0.61857422 -14.56773437 -0.67464844 -13.63671875 -0.73242188 C-8.91943783 -0.99066718 -4.65068353 -1.04292737 0 0 Z " fill="#FFFFFF" transform="translate(398,234)"/>
<path d="M0 0 C0.02687279 1.81242052 0.04633715 3.62495233 0.0625 5.4375 C0.07410156 6.44683594 0.08570313 7.45617187 0.09765625 8.49609375 C0 11 0 11 -1 12 C-2.51928038 12.07179964 -4.04167482 12.08392007 -5.5625 12.0625 C-6.38878906 12.05347656 -7.21507812 12.04445312 -8.06640625 12.03515625 C-8.70449219 12.02355469 -9.34257812 12.01195312 -10 12 C-9.99777939 12.9373851 -9.99555878 13.8747702 -9.99327087 14.84056091 C-9.97303857 23.65521785 -9.95802744 32.4698701 -9.94818783 41.28454494 C-9.94295922 45.81674094 -9.93586199 50.34891827 -9.92456055 54.88110352 C-9.91373086 59.2512283 -9.90772299 63.62133508 -9.90512276 67.99147224 C-9.90326865 69.66250963 -9.89964832 71.33354597 -9.89426994 73.00457573 C-9.88705841 75.33697551 -9.8860091 77.66929993 -9.88647461 80.00170898 C-9.88287933 80.6994191 -9.87928406 81.39712921 -9.87557983 82.11598206 C-9.88594784 86.88594784 -9.88594784 86.88594784 -11 88 C-12.83115883 88.09851171 -14.66619933 88.12972629 -16.5 88.125 C-17.5003125 88.12757813 -18.500625 88.13015625 -19.53125 88.1328125 C-22 88 -22 88 -23 87 C-24.07087571 78.44164308 -24.14882152 69.81171188 -24.1328125 61.19921875 C-24.13376923 60.03800003 -24.13472595 58.87678131 -24.13571167 57.68037415 C-24.13638654 55.24939926 -24.13458113 52.8184225 -24.13037109 50.38745117 C-24.12498836 46.67948363 -24.13035231 42.97163584 -24.13671875 39.26367188 C-24.13605832 36.88802057 -24.13477789 34.51236934 -24.1328125 32.13671875 C-24.13483673 31.03760666 -24.13686096 29.93849457 -24.13894653 28.80607605 C-24.12165343 23.10844041 -23.85477633 17.63498774 -23 12 C-23.71027344 12.01160156 -24.42054688 12.02320313 -25.15234375 12.03515625 C-26.07144531 12.04417969 -26.99054688 12.05320313 -27.9375 12.0625 C-28.85402344 12.07410156 -29.77054687 12.08570313 -30.71484375 12.09765625 C-33 12 -33 12 -34 11 C-34.07226502 9.14712498 -34.0838122 7.29166122 -34.0625 5.4375 C-34.05347656 4.42558594 -34.04445313 3.41367188 -34.03515625 2.37109375 C-34.02355469 1.58863281 -34.01195312 0.80617187 -34 0 C-29.64624473 -0.19800001 -25.29199369 -0.38152823 -20.9375 -0.5625 C-19.70837891 -0.61857422 -18.47925781 -0.67464844 -17.21289062 -0.73242188 C-11.3327081 -0.9701651 -5.78396925 -1.16023157 0 0 Z " fill="#FFFFFF" transform="translate(367,234)"/>
<path d="M0 0 C1.23685547 -0.00257813 2.47371094 -0.00515625 3.74804688 -0.0078125 C5.03646484 -0.00007812 6.32488281 0.00765625 7.65234375 0.015625 C8.94462891 0.00789062 10.23691406 0.00015625 11.56835938 -0.0078125 C12.80392578 -0.00523437 14.03949219 -0.00265625 15.3125 0 C17.01031616 0.00338379 17.01031616 0.00338379 18.74243164 0.00683594 C21.58984375 0.265625 21.58984375 0.265625 24.58984375 2.265625 C25.15721964 9.41456117 25.15721964 9.41456117 22.58984375 13.265625 C19.28984375 13.265625 15.98984375 13.265625 12.58984375 13.265625 C12.58984375 38.345625 12.58984375 63.425625 12.58984375 89.265625 C1.58984375 89.265625 1.58984375 89.265625 -0.41015625 88.265625 C-0.41015625 63.515625 -0.41015625 38.765625 -0.41015625 13.265625 C-3.05015625 13.265625 -5.69015625 13.265625 -8.41015625 13.265625 C-10.41015625 11.265625 -10.41015625 11.265625 -10.60546875 9.1015625 C-10.58226563 8.28945312 -10.5590625 7.47734375 -10.53515625 6.640625 C-10.51710938 5.82335937 -10.4990625 5.00609375 -10.48046875 4.1640625 C-10.45726563 3.53757813 -10.4340625 2.91109375 -10.41015625 2.265625 C-6.90419047 0.10991897 -4.07354966 0.0081106 0 0 Z " fill="#FFFFFF" transform="translate(127.41015625,232.734375)"/>
<path d="M0 0 C0.99 0 1.98 0 3 0 C4.11328125 1.71875 4.11328125 1.71875 5 4 C4.35546875 6.21875 4.35546875 6.21875 3.1875 8.5 C1.58069759 11.66682715 1.58069759 11.66682715 0.5546875 15.04296875 C-1.19867643 21.22913304 -8.0990351 26.01891361 -12.83203125 30.01953125 C-15.40419453 32.36923717 -17.68284128 34.89896272 -20 37.5 C-23.54543338 41.47567798 -27.16705001 45.0762894 -31.24609375 48.49609375 C-32.88833981 49.90425574 -34.3816325 51.37447104 -35.875 52.9375 C-38 55 -38 55 -40 55 C-40.226875 55.639375 -40.45375 56.27875 -40.6875 56.9375 C-42 59 -42 59 -44.25 60 C-49.21976223 60 -52.169607 56.70122076 -55.8125 53.625 C-58.28424344 50.65890788 -58.73471333 48.80244228 -59 45 C-59.66 45 -60.32 45 -61 45 C-61.33 43.35 -61.66 41.7 -62 40 C-59.75 38.375 -59.75 38.375 -57 37 C-55 37.75 -55 37.75 -53 39 C-51.34178227 39.37309899 -49.67422986 39.70700977 -48 40 C-47.01 40.433125 -47.01 40.433125 -46 40.875 C-45.34 40.91625 -44.68 40.9575 -44 41 C-41.39585286 38.64587234 -41.39585286 38.64587234 -39 36 C-37.515 35.505 -37.515 35.505 -36 35 C-34.79117904 32.99983534 -34.79117904 32.99983534 -34 31 C-33.34 31 -32.68 31 -32 31 C-31.773125 30.443125 -31.54625 29.88625 -31.3125 29.3125 C-29.62449964 26.33840412 -27.53323483 24.27991135 -25 22 C-24.34 22 -23.68 22 -23 22 C-22.773125 21.443125 -22.54625 20.88625 -22.3125 20.3125 C-19.61159416 15.55376114 -16.20988728 12.63739315 -11 11 C-10.505 11.495 -10.505 11.495 -10 12 C-8.894019 10.75160501 -7.79029799 9.50120766 -6.6875 8.25 C-6.07261719 7.55390625 -5.45773437 6.8578125 -4.82421875 6.140625 C-2.96753151 4.0397126 -2.96753151 4.0397126 -1.45703125 1.734375 C-0.73580078 0.87585938 -0.73580078 0.87585938 0 0 Z " fill="#FFFFFF" transform="translate(346,131)"/>
<path d="M0 0 C0.66 0.99 1.32 1.98 2 3 C1.125 5.6875 1.125 5.6875 0 8 C-1.32 8 -2.64 8 -4 8 C-4.33 9.32 -4.66 10.64 -5 12 C-2.55519921 11.81171228 -2.55519921 11.81171228 0 11 C1.09166275 9.06669397 1.09166275 9.06669397 2 7 C4.125 5.75 4.125 5.75 6 5 C6.495 5.99 6.495 5.99 7 7 C7.33 6.01 7.66 5.02 8 4 C8.495 5.485 8.495 5.485 9 7 C7.75283203 8.13888672 7.75283203 8.13888672 6.48046875 9.30078125 C5.38277925 10.30465114 4.28512484 11.3085594 3.1875 12.3125 C2.64029297 12.81201172 2.09308594 13.31152344 1.52929688 13.82617188 C-1.68744276 16.76752093 -1.68744276 16.76752093 -4.76171875 19.85546875 C-6 21 -6 21 -8 21 C-8.226875 21.639375 -8.45375 22.27875 -8.6875 22.9375 C-10 25 -10 25 -12.25 26 C-17.21976223 26 -20.169607 22.70122076 -23.8125 19.625 C-26.28424344 16.65890788 -26.73471333 14.80244228 -27 11 C-27.66 11 -28.32 11 -29 11 C-29.33 9.35 -29.66 7.7 -30 6 C-27.75 4.375 -27.75 4.375 -25 3 C-23 3.75 -23 3.75 -21 5 C-19.34178227 5.37309899 -17.67422986 5.70700977 -16 6 C-15.34 6.28875 -14.68 6.5775 -14 6.875 C-13.34 6.91625 -12.68 6.9575 -12 7 C-10.29220027 5.37550757 -8.62449243 3.70779973 -7 2 C-4.66666667 2 -2.33333333 2 0 2 C0 1.34 0 0.68 0 0 Z " fill="#FFFFFF" transform="translate(314,165)"/>
<path d="M0 0 C8.51954945 7.22309628 16.86906135 14.36685854 24 23 C24.76183594 23.90685547 24.76183594 23.90685547 25.5390625 24.83203125 C26.69928238 26.21586893 27.85078385 27.60701073 29 29 C27.68 29.33 26.36 29.66 25 30 C24.505 29.01 24.505 29.01 24 28 C23.34 28 22.68 28 22 28 C21.34 28.66 20.68 29.32 20 30 C19.34 30 18.68 30 18 30 C18 31.65 18 33.3 18 35 C18.66 35 19.32 35 20 35 C20.33 36.32 20.66 37.64 21 39 C16.78017757 37.4371028 14.78476126 34.41133255 12 31 C10.67098936 29.99426222 9.33926199 28.99204592 8 28 C8 27.34 8 26.68 8 26 C7.40960938 25.74863281 6.81921875 25.49726563 6.2109375 25.23828125 C3.72349193 23.84513594 2.41929277 22.39035239 0.625 20.1875 C-2.33828059 16.67380444 -5.38116442 13.82445704 -9 11 C-6.66785852 9.79371992 -4.50357861 8.8345262 -2 8 C0.1519437 4.77208445 0.20086443 3.71599191 0 0 Z " fill="#FFFFFF" transform="translate(267,141)"/>
<path d="M0 0 C27.72 0 55.44 0 84 0 C84 0.33 84 0.66 84 1 C57.93 1 31.86 1 5 1 C4.67 1.66 4.34 2.32 4 3 C3.34 3 2.68 3 2 3 C2.24731873 4.66937874 2.24731873 4.66937874 2.49963379 6.3724823 C3.10875239 11.27822924 3.08533702 16.10423332 3.00585938 21.0402832 C2.99464554 22.01198959 2.9834317 22.98369598 2.97187805 23.98484802 C2.94699102 26.08117441 2.91960733 28.17747236 2.88996887 30.27373695 C2.84320469 33.58944555 2.80324056 36.9051757 2.76501465 40.22099304 C2.68274078 47.25157688 2.59188661 54.28203615 2.5 61.3125 C2.39357102 69.47783704 2.29064417 77.64319013 2.19624329 85.80867577 C2.15666774 89.07876346 2.11086205 92.34872652 2.06481934 95.61872864 C2.04095984 97.61471201 2.01738465 99.61069882 1.99414062 101.60668945 C1.97962357 102.51840912 1.96510651 103.43012878 1.95014954 104.36947632 C1.94166489 105.20345444 1.93318024 106.03743256 1.92443848 106.89668274 C1.91484352 107.6209612 1.90524857 108.34523966 1.89536285 109.09146595 C1.92811283 111.22403701 1.92811283 111.22403701 3 114 C2.505 114.99 2.505 114.99 2 116 C2 117.32 2 118.64 2 120 C2 124 2 124 1 126 C1.66 126.33 2.32 126.66 3 127 C1.515 127.495 1.515 127.495 0 128 C0 85.76 0 43.52 0 0 Z " fill="#FFFFFF" transform="translate(232,84)"/>
<path d="M0 0 C0.99 0.66 1.98 1.32 3 2 C2.43646577 7.36401098 1.12448259 11.84297362 -0.9375 16.8125 C-1.20240234 17.47958984 -1.46730469 18.14667969 -1.74023438 18.83398438 C-2.8981978 21.68148252 -3.80506965 23.80506965 -6 26 C-9.125 26.125 -9.125 26.125 -12 26 C-14.85797747 21.23782922 -13.51761874 17.61814889 -12.375 12.4375 C-12.20871094 11.57447266 -12.04242188 10.71144531 -11.87109375 9.82226562 C-10.54034241 3.57161971 -10.54034241 3.57161971 -8.04296875 0.9296875 C-5.21053487 -0.35925947 -3.07387071 -0.32700752 0 0 Z " fill="#FFFFFF" transform="translate(461,233)"/>
<path d="M0 0 C1.0625 1.875 1.0625 1.875 2 4 C1.67 4.66 1.34 5.32 1 6 C0.34 6 -0.32 6 -1 6 C-0.67 6.99 -0.34 7.98 0 9 C-0.95298777 10.36733028 -1.95374591 11.70264493 -3 13 C-3 13.66 -3 14.32 -3 15 C-3.66 15 -4.32 15 -5 15 C-6.27253436 18.64793184 -7.32829194 22.1936543 -8 26 C-10.07553648 26.5534764 -11.84365964 27 -14 27 C-15.41385911 29.38162009 -15.41385911 29.38162009 -16 32 C-17.98 32 -19.96 32 -22 32 C-21.67 30.68 -21.34 29.36 -21 28 C-19.68 28 -18.36 28 -17 28 C-16.67 26.35 -16.34 24.7 -16 23 C-20.04622502 22.63019987 -20.04622502 22.63019987 -23 25 C-22.25 22.125 -22.25 22.125 -21 19 C-19 17.875 -19 17.875 -17 17 C-16.54753906 16.07960937 -16.54753906 16.07960937 -16.0859375 15.140625 C-14.88430546 12.77194026 -13.65399263 11.5673039 -11.625 9.875 C-10.74714844 9.12863281 -10.74714844 9.12863281 -9.8515625 8.3671875 C-7.95143888 6.96414264 -6.19508738 5.8762283 -4 5 C-3.34 5.33 -2.68 5.66 -2 6 C-1.34 4.02 -0.68 2.04 0 0 Z " fill="#FFFFFF" transform="translate(331,145)"/>
<path d="M0 0 C1.38832031 -0.00386719 1.38832031 -0.00386719 2.8046875 -0.0078125 C3.76375 -0.00007812 4.7228125 0.00765625 5.7109375 0.015625 C6.67773438 0.00789062 7.64453125 0.00015625 8.640625 -0.0078125 C9.56359375 -0.00523437 10.4865625 -0.00265625 11.4375 0 C12.28135254 0.00225586 13.12520508 0.00451172 13.99462891 0.00683594 C16.0859375 0.265625 16.0859375 0.265625 18.0859375 2.265625 C18.31640625 4.39453125 18.31640625 4.39453125 18.2734375 6.828125 C18.26699219 7.63378906 18.26054687 8.43945312 18.25390625 9.26953125 C18.0859375 11.265625 18.0859375 11.265625 17.0859375 12.265625 C12.75062832 12.40955957 8.42436019 12.30774561 4.0859375 12.265625 C4.0859375 20.515625 4.0859375 28.765625 4.0859375 37.265625 C7.0559375 37.265625 10.0259375 37.265625 13.0859375 37.265625 C13.7459375 37.595625 14.4059375 37.925625 15.0859375 38.265625 C15.0859375 41.565625 15.0859375 44.865625 15.0859375 48.265625 C11.4559375 48.265625 7.8259375 48.265625 4.0859375 48.265625 C4.0859375 57.505625 4.0859375 66.745625 4.0859375 76.265625 C8.0459375 76.265625 12.0059375 76.265625 16.0859375 76.265625 C16.0859375 76.595625 16.0859375 76.925625 16.0859375 77.265625 C11.4659375 77.595625 6.8459375 77.925625 2.0859375 78.265625 C2.0859375 68.035625 2.0859375 57.805625 2.0859375 47.265625 C6.0459375 47.265625 10.0059375 47.265625 14.0859375 47.265625 C14.0859375 44.625625 14.0859375 41.985625 14.0859375 39.265625 C10.1259375 39.265625 6.1659375 39.265625 2.0859375 39.265625 C2.0859375 29.695625 2.0859375 20.125625 2.0859375 10.265625 C9.0159375 10.760625 9.0159375 10.760625 16.0859375 11.265625 C16.0859375 8.295625 16.0859375 5.325625 16.0859375 2.265625 C7.8359375 2.265625 -0.4140625 2.265625 -8.9140625 2.265625 C-5.16676357 0.39197553 -3.94469463 0.01051718 0 0 Z " fill="#FFFFFF" transform="translate(207.9140625,232.734375)"/>
<path d="M0 0 C8 0 8 0 11 2 C8.03 2 5.06 2 2 2 C2.00222061 2.9373851 2.00444122 3.8747702 2.00672913 4.84056091 C2.02696143 13.65521785 2.04197256 22.4698701 2.05181217 31.28454494 C2.05704078 35.81674094 2.06413801 40.34891827 2.07543945 44.88110352 C2.08626914 49.2512283 2.09227701 53.62133508 2.09487724 57.99147224 C2.09673135 59.66250963 2.10035168 61.33354597 2.10573006 63.00457573 C2.11294159 65.33697551 2.1139909 67.66929993 2.11352539 70.00170898 C2.11712067 70.6994191 2.12071594 71.39712921 2.12442017 72.11598206 C2.11405216 76.88594784 2.11405216 76.88594784 1 78 C-0.85287502 78.07226502 -2.70833878 78.0838122 -4.5625 78.0625 C-6.08037109 78.04896484 -6.08037109 78.04896484 -7.62890625 78.03515625 C-8.41136719 78.02355469 -9.19382812 78.01195312 -10 78 C-10 77.67 -10 77.34 -10 77 C-6.7 77 -3.4 77 0 77 C0 51.59 0 26.18 0 0 Z " fill="#FFFFFF" transform="translate(355,244)"/>
<path d="M0 0 C2 2 2 2 2.22768497 3.79945278 C2.21716823 4.53114713 2.20665148 5.26284147 2.19581604 6.01670837 C2.18870605 6.85653763 2.18159607 7.69636688 2.17427063 8.56164551 C2.14710213 9.94640076 2.14710213 9.94640076 2.11938477 11.35913086 C2.10831696 12.32996109 2.09724915 13.30079132 2.08584595 14.30104065 C2.04695262 17.52250065 1.99399734 20.74358076 1.94140625 23.96484375 C1.91270576 26.19681016 1.88504459 28.42879016 1.85838318 30.66078186 C1.78594657 36.54688066 1.70230386 42.43276231 1.61547852 48.31866455 C1.47759269 57.73731457 1.35292519 67.15612333 1.23518181 76.57504463 C1.19180904 79.87172833 1.14146409 83.168255 1.09046936 86.46482849 C1.06341006 88.480374 1.03657783 90.49592257 1.01000977 92.51147461 C0.98587761 93.89319351 0.98587761 93.89319351 0.96125793 95.30282593 C0.95132813 96.14547501 0.94139832 96.98812408 0.9311676 97.85630798 C0.92027383 98.58837935 0.90938005 99.32045073 0.89815617 100.07470608 C0.9262269 102.22146913 0.9262269 102.22146913 2 105 C1.505 105.99 1.505 105.99 1 107 C1 108.32 1 109.64 1 111 C1 115 1 115 0 117 C0.66 117.33 1.32 117.66 2 118 C0.515 118.495 0.515 118.495 -1 119 C-0.67 79.73 -0.34 40.46 0 0 Z " fill="#FFFFFF" transform="translate(233,93)"/>
<path d="M0 0 C9.00958466 -0.30031949 9.00958466 -0.30031949 12 2 C13.25 4.125 13.25 4.125 14 6 C13.34 6 12.68 6 12 6 C11.67 8.64 11.34 11.28 11 14 C9.68 14.33 8.36 14.66 7 15 C7 13.68 7 12.36 7 11 C2.545 10.01 2.545 10.01 -2 9 C-1.125 4.125 -1.125 4.125 0 3 C0 2.01 0 1.02 0 0 Z " fill="#FFFFFF" transform="translate(310,234)"/>
<path d="M0 0 C6.65686814 -0.0505916 13.31368694 -0.0856876 19.97070312 -0.10986328 C22.23667249 -0.11993859 24.50262881 -0.13359918 26.76855469 -0.15087891 C30.02021501 -0.17506011 33.27170387 -0.18646763 36.5234375 -0.1953125 C38.05005508 -0.21079636 38.05005508 -0.21079636 39.60751343 -0.22659302 C40.54833771 -0.22674408 41.48916199 -0.22689514 42.45849609 -0.22705078 C43.28900482 -0.231492 44.11951355 -0.23593323 44.97518921 -0.24050903 C47 0 47 0 49 2 C49.265625 3.875 49.265625 3.875 49.25 6 C49.25773437 7.051875 49.25773437 7.051875 49.265625 8.125 C49 10 49 10 47 12 C45.68 12 44.36 12 43 12 C41.53273202 8.18510326 42.56663581 5.70988378 44 2 C43.236875 2 42.47375 2 41.6875 2 C39.79166667 2 37.89583333 2 36 2 C34.54687214 2.01135802 33.09374743 2.02312306 31.640625 2.03515625 C21.04054482 2.09855267 10.56443849 1.9087689 0 1 C0 0.67 0 0.34 0 0 Z " fill="#FFFFFF" transform="translate(270,85)"/>
<path d="M0 0 C2 1 2 1 2 1 Z M-1 1 C-0.34 1.33 0.32 1.66 1 2 C1 2.99 1 3.98 1 5 C1.99 5 2.98 5 4 5 C4 5.99 4 6.98 4 8 C4.66 8.33 5.32 8.66 6 9 C4.56394807 12.38818502 2.79533421 14.3186598 0 16.6875 C-0.70125 17.28949219 -1.4025 17.89148438 -2.125 18.51171875 C-4 20 -4 20 -6 21 C-6.33 20.01 -6.66 19.02 -7 18 C-6.34 18 -5.68 18 -5 18 C-4.24572703 13.02093741 -4.24572703 13.02093741 -4 8 C-2.28571429 2.28571429 -2.28571429 2.28571429 -1 1 Z " fill="#FFFFFF" transform="translate(353,125)"/>
<path d="M0 0 C0.556875 0.268125 1.11375 0.53625 1.6875 0.8125 C1.6875 2.8125 1.6875 2.8125 0.1875 4.4375 C-0.3075 4.89125 -0.8025 5.345 -1.3125 5.8125 C-0.6525 6.1425 0.0075 6.4725 0.6875 6.8125 C0.6875 7.8025 0.6875 8.7925 0.6875 9.8125 C-0.3025 9.8125 -1.2925 9.8125 -2.3125 9.8125 C-2.3125 10.4725 -2.3125 11.1325 -2.3125 11.8125 C-3.34310547 12.10253906 -3.34310547 12.10253906 -4.39453125 12.3984375 C-5.29558594 12.65882813 -6.19664062 12.91921875 -7.125 13.1875 C-8.01832031 13.44273437 -8.91164063 13.69796875 -9.83203125 13.9609375 C-12.51717896 14.76516661 -12.51717896 14.76516661 -15.3125 16.8125 C-14.5625 13.9375 -14.5625 13.9375 -13.3125 10.8125 C-11.3125 9.6875 -11.3125 9.6875 -9.3125 8.8125 C-8.62763275 7.48842331 -7.96379797 6.15340759 -7.3125 4.8125 C-3.04043704 -0.24652192 -3.04043704 -0.24652192 0 0 Z " fill="#FFFFFF" transform="translate(323.3125,153.1875)"/>
<path d="M0 0 C0.33 0 0.66 0 1 0 C1 3.3 1 6.6 1 10 C-2.63 10 -6.26 10 -10 10 C-10 19.24 -10 28.48 -10 38 C-6.04 38 -2.08 38 2 38 C2 38.33 2 38.66 2 39 C-2.62 39.33 -7.24 39.66 -12 40 C-12 29.77 -12 19.54 -12 9 C-8.04 9 -4.08 9 0 9 C0 6.03 0 3.06 0 0 Z " fill="#FFFFFF" transform="translate(222,271)"/>
<path d="M0 0 C-0.33 0.66 -0.66 1.32 -1 2 C-3.475 1.505 -3.475 1.505 -6 1 C-6 0.67 -6 0.34 -6 0 C-8.31 0 -10.62 0 -13 0 C-12.67 0.99 -12.34 1.98 -12 3 C-12.66 3 -13.32 3 -14 3 C-14 4.32 -14 5.64 -14 7 C-16.97 6.67 -19.94 6.34 -23 6 C-23 5.01 -23 4.02 -23 3 C-22.34 2.67 -21.68 2.34 -21 2 C-20.67 1.01 -20.34 0.02 -20 -1 C-13.15994361 -4.93821429 -6.57082129 -3.28541064 0 0 Z " fill="#FFFFFF" transform="translate(323,235)"/>
<path d="M0 0 C1.11328125 1.71875 1.11328125 1.71875 2 4 C1.35546875 6.21875 1.35546875 6.21875 0.1875 8.5 C-1.44597687 11.75494572 -1.44597687 11.75494572 -2.51171875 15.21875 C-2.67285156 15.8065625 -2.83398438 16.394375 -3 17 C-3.66 17.33 -4.32 17.66 -5 18 C-5 17.34 -5 16.68 -5 16 C-5.66 15.67 -6.32 15.34 -7 15 C-6.34 15 -5.68 15 -5 15 C-6.32 12.36 -7.64 9.72 -9 7 C-8.07347299 5.82460004 -7.13336613 4.65989423 -6.1875 3.5 C-5.66542969 2.8503125 -5.14335937 2.200625 -4.60546875 1.53125 C-3 0 -3 0 0 0 Z " fill="#FFFFFF" transform="translate(349,131)"/>
<path d="M0 0 C0.66 0.33 1.32 0.66 2 1 C0.33694702 2.90063198 -1.32650966 4.8008855 -2.9921875 6.69921875 C-4.29725428 8.19471356 -5.59460214 9.69699214 -6.8828125 11.20703125 C-7.77613281 12.24923828 -7.77613281 12.24923828 -8.6875 13.3125 C-9.22761719 13.94800781 -9.76773437 14.58351563 -10.32421875 15.23828125 C-12.10422171 17.10956641 -13.82459034 18.60550663 -16 20 C-16.99 20 -17.98 20 -19 20 C-18.67 18.68 -18.34 17.36 -18 16 C-17.34 16 -16.68 16 -16 16 C-16 15.34 -16 14.68 -16 14 C-14.6796875 12.73828125 -14.6796875 12.73828125 -12.875 11.3125 C-9.60292156 8.62330193 -6.97212106 5.74261472 -4.359375 2.41796875 C-3 1 -3 1 0 0 Z " fill="#FFFFFF" transform="translate(340,100)"/>
<path d="M0 0 C5.52289491 2.23545746 8.44984265 5.40493818 12 10 C10.68 10.33 9.36 10.66 8 11 C7.67 10.34 7.34 9.68 7 9 C6.34 9 5.68 9 5 9 C4.34 9.66 3.68 10.32 3 11 C2.34 11 1.68 11 1 11 C0.01 12.485 0.01 12.485 -1 14 C-1.66 13.01 -2.32 12.02 -3 11 C-2.34 10.34 -1.68 9.68 -1 9 C-0.95833998 6.6670386 -0.95833998 4.3329614 -1 2 C-0.67 1.34 -0.34 0.68 0 0 Z " fill="#FFFFFF" transform="translate(284,160)"/>
<path d="M0 0 C0.66 0.99 1.32 1.98 2 3 C0.07063642 4.842617 -1.86755967 6.67395452 -3.8125 8.5 C-4.63331055 9.28697266 -4.63331055 9.28697266 -5.47070312 10.08984375 C-9.66015625 14 -9.66015625 14 -13 14 C-12.67 12.68 -12.34 11.36 -12 10 C-13.32 9.34 -14.64 8.68 -16 8 C-12.92677456 7.08941469 -10.19902639 6.91113816 -7 7 C-6.62875 6.071875 -6.62875 6.071875 -6.25 5.125 C-4.79371361 2.64931313 -3.62187494 2.04874998 -1 1 C-0.67 1.66 -0.34 2.32 0 3 C0 2.01 0 1.02 0 0 Z " fill="#FFFFFF" transform="translate(321,169)"/>
<path d="M0 0 C1 3 1 3 1 7 C-1.32084841 10.07057616 -4.08715558 12.50081396 -7 15 C-7.66 15.66 -8.32 16.32 -9 17 C-9.75 15.4375 -9.75 15.4375 -10 13 C-8.86915563 10.49713591 -7.47860484 8.32992278 -6 6 C-5.34 6 -4.68 6 -4 6 C-4.33 5.01 -4.66 4.02 -5 3 C-2.25 0 -2.25 0 0 0 Z " fill="#FFFFFF" transform="translate(332,154)"/>
<path d="M0 0 C2.33944736 0.28730055 4.6739143 0.61936779 7 1 C7 1.33 7 1.66 7 2 C5.02 2 3.04 2 1 2 C1 10.25 1 18.5 1 27 C1.99 27.33 2.98 27.66 4 28 C2.35 28.33 0.7 28.66 -1 29 C-1.02465881 25.03069011 -1.04284023 21.06140966 -1.05493164 17.09204102 C-1.05997057 15.74079614 -1.06680177 14.38955674 -1.07543945 13.03833008 C-1.08752419 11.09979566 -1.09269828 9.161222 -1.09765625 7.22265625 C-1.10289307 6.05484619 -1.10812988 4.88703613 -1.11352539 3.68383789 C-1 1 -1 1 0 0 Z " fill="#FFFFFF" transform="translate(416,243)"/>
<path d="M0 0 C0.66 0.33 1.32 0.66 2 1 C0.50554575 4.93992484 -1.46558048 5.87934829 -5 8 C-7.99123453 10.75456543 -10.8263021 13.67582801 -13.5234375 16.71875 C-15 18 -15 18 -18 18 C-17.34 16.68 -16.68 15.36 -16 14 C-15.34 14 -14.68 14 -14 14 C-13.773125 13.443125 -13.54625 12.88625 -13.3125 12.3125 C-11.62449964 9.33840412 -9.53323483 7.27991135 -7 5 C-6.34 5 -5.68 5 -5 5 C-4.731875 4.360625 -4.46375 3.72125 -4.1875 3.0625 C-3 1 -3 1 0 0 Z " fill="#FFFFFF" transform="translate(350,126)"/>
<path d="M0 0 C1.23556641 0.01740234 1.23556641 0.01740234 2.49609375 0.03515625 C3.32238281 0.04417969 4.14867187 0.05320313 5 0.0625 C5.63808594 0.07410156 6.27617187 0.08570313 6.93359375 0.09765625 C6.81847222 1.82750867 6.69103698 3.55654376 6.55859375 5.28515625 C6.48898437 6.24808594 6.419375 7.21101562 6.34765625 8.203125 C5.93143522 11.11274563 5.13485279 13.42656399 3.93359375 16.09765625 C2.82514456 12.77230868 3.08905019 10.4758305 3.93359375 7.09765625 C3.27359375 7.09765625 2.61359375 7.09765625 1.93359375 7.09765625 C1.60359375 7.75765625 1.27359375 8.41765625 0.93359375 9.09765625 C-0.06640625 4.34765625 -0.06640625 4.34765625 -0.06640625 2.09765625 C-1.05640625 1.76765625 -2.04640625 1.43765625 -3.06640625 1.09765625 C-2.06640625 0.09765625 -2.06640625 0.09765625 0 0 Z " fill="#FFFFFF" transform="translate(281.06640625,234.90234375)"/>
<path d="M0 0 C8 0 8 0 11 2 C8.03 2 5.06 2 2 2 C2 16.52 2 31.04 2 46 C1.67 46 1.34 46 1 46 C0.67 30.82 0.34 15.64 0 0 Z " fill="#FFFFFF" transform="translate(355,244)"/>
<path d="M0 0 C2.87126493 0.66773603 3.93889832 1.29353109 5.6875 3.625 C1.95263121 4.1995952 -1.52543268 4.625 -5.3125 4.625 C-6.43766085 6.45784443 -6.43766085 6.45784443 -7.3125 8.625 C-6.9825 9.615 -6.6525 10.605 -6.3125 11.625 C-8.9525 11.955 -11.5925 12.285 -14.3125 12.625 C-11.47499065 6.77263697 -6.52624732 1.23136742 0 0 Z " fill="#FFFFFF" transform="translate(269.3125,114.375)"/>
<path d="M0 0 C0.66 0.33 1.32 0.66 2 1 C1.34 1.66 0.68 2.32 0 3 C0.33 3.66 0.66 4.32 1 5 C0.48050781 5.44730469 -0.03898437 5.89460938 -0.57421875 6.35546875 C-3.75336094 9.11150884 -6.83889184 11.83156874 -9.75 14.875 C-11.94996549 16.95274519 -13.04092976 17.67121442 -16 18 C-15.1875 16.0625 -15.1875 16.0625 -14 14 C-13.01 13.67 -12.02 13.34 -11 13 C-9.79117904 10.99983534 -9.79117904 10.99983534 -9 9 C-8.34 9 -7.68 9 -7 9 C-6.34 7.68 -5.68 6.36 -5 5 C-4.34 5 -3.68 5 -3 5 C-2.690625 4.360625 -2.38125 3.72125 -2.0625 3.0625 C-1 1 -1 1 0 0 Z " fill="#FFFFFF" transform="translate(365,109)"/>
<path d="M0 0 C0.33 0 0.66 0 1 0 C1 9.24 1 18.48 1 28 C1.66 28.33 2.32 28.66 3 29 C-1.42804306 31.26186875 -5.35984715 31.12572683 -10.1875 30.75 C-10.91130859 30.71003906 -11.63511719 30.67007813 -12.38085938 30.62890625 C-17.74000219 30.25999781 -17.74000219 30.25999781 -20 28 C-13.73 28 -7.46 28 -1 28 C-0.67 18.76 -0.34 9.52 0 0 Z " fill="#FFFFFF" transform="translate(348,171)"/>
<path d="M0 0 C0.33 0 0.66 0 1 0 C1.23889655 9.59567793 0.78831859 18.53149174 -1 28 C-1.66 28 -2.32 28 -3 28 C-3 23.38 -3 18.76 -3 14 C-2.67 14 -2.34 14 -2 14 C-1.34 9.38 -0.68 4.76 0 0 Z " fill="#FFFFFF" transform="translate(272,271)"/>
<path d="M0 0 C2.60484399 2.53574201 3.22282921 4.51774832 3.34057617 8.03417969 C3.34010316 9.66348867 3.32326986 11.29284773 3.29296875 12.921875 C3.28872391 13.78186096 3.28447906 14.64184692 3.28010559 15.52789307 C3.26334116 18.2689167 3.22569345 21.00919939 3.1875 23.75 C3.17245025 25.61066645 3.15876235 27.47134445 3.14648438 29.33203125 C3.11344499 33.8883054 3.06167833 38.44402716 3 43 C2.67 43 2.34 43 2 43 C1.67 30.46 1.34 17.92 1 5 C0.01 4.67 -0.98 4.34 -2 4 C-2 3.34 -2 2.68 -2 2 C-1.34 2 -0.68 2 0 2 C0 1.34 0 0.68 0 0 Z " fill="#FFFFFF" transform="translate(358,168)"/>
<path d="M0 0 C1.0625 1.875 1.0625 1.875 2 4 C1.67 4.66 1.34 5.32 1 6 C0.34 6 -0.32 6 -1 6 C-0.67 6.99 -0.34 7.98 0 9 C-0.95298777 10.36733028 -1.95374591 11.70264493 -3 13 C-3 13.66 -3 14.32 -3 15 C-3.66 15 -4.32 15 -5 15 C-5 14.34 -5 13.68 -5 13 C-5.66 12.67 -6.32 12.34 -7 12 C-6.34 11.34 -5.68 10.68 -5 10 C-5.99 9.01 -6.98 8.02 -8 7 C-6.125 5.9375 -6.125 5.9375 -4 5 C-3.34 5.33 -2.68 5.66 -2 6 C-1.34 4.02 -0.68 2.04 0 0 Z " fill="#FFFFFF" transform="translate(331,145)"/>
<path d="M0 0 C-1.24239921 4.69350812 -3.77007922 6.77517676 -7.44140625 9.66796875 C-9.13049223 10.93649295 -9.13049223 10.93649295 -10 13 C-10.99 13 -11.98 13 -13 13 C-13.33 11.68 -13.66 10.36 -14 9 C-13.2575 8.773125 -12.515 8.54625 -11.75 8.3125 C-8.46592295 6.74509959 -7.16129155 4.88172206 -5 2 C-2 0 -2 0 0 0 Z " fill="#FFFFFF" transform="translate(342,114)"/>
<path d="M0 0 C0.66 0.33 1.32 0.66 2 1 C-0.25336934 7.15920952 -4.54800474 10.50327439 -10 14 C-10.66 14 -11.32 14 -12 14 C-12.33 14.99 -12.66 15.98 -13 17 C-13.66 16.67 -14.32 16.34 -15 16 C-11.48948335 11.65364605 -7.87898651 7.85792612 -3.515625 4.359375 C-1.74087049 2.8811002 -1.74087049 2.8811002 0 0 Z " fill="#FFFFFF" transform="translate(359,79)"/>
<path d="M0 0 C0.99 0 1.98 0 3 0 C2.58243961 4.87153789 0.50267008 6.75362285 -3 10 C-3.99 11.485 -3.99 11.485 -5 13 C-7.625 13.1875 -7.625 13.1875 -10 13 C-9.34 12.67 -8.68 12.34 -8 12 C-8 11.34 -8 10.68 -8 10 C-6.28636151 8.43401182 -4.46624657 7.05071958 -2.62890625 5.6328125 C-0.77743904 3.77690532 -0.39275918 2.55570059 0 0 Z " fill="#FFFFFF" transform="translate(315,136)"/>
<path d="M0 0 C0.99 0.66 1.98 1.32 3 2 C3.40843923 4.71203652 3.13336867 7.2437142 3 10 C1.02 10.99 1.02 10.99 -1 12 C-2.45606519 7.47907032 -1.27032841 4.48351204 0 0 Z " fill="#FFFFFF" transform="translate(316,85)"/>
<path d="M0 0 C2.475 0.99 2.475 0.99 5 2 C4.67 3.65 4.34 5.3 4 7 C1.03 6.505 1.03 6.505 -2 6 C-2.33 5.01 -2.66 4.02 -3 3 C-2.01 2.01 -1.02 1.02 0 0 Z " fill="#FFFFFF" transform="translate(290,144)"/>
<path d="M0 0 C0.66 0.33 1.32 0.66 2 1 C0.46134562 4.84663596 -0.4747922 6.6784442 -4.0625 8.875 C-7 10 -7 10 -9 10 C-7.02955353 5.40229157 -4.12362307 2.74908205 0 0 Z " fill="#FFFFFF" transform="translate(312,128)"/>
<path d="M0 0 C1.9375 0.375 1.9375 0.375 4 1 C4.33 1.66 4.66 2.32 5 3 C4.67 3.66 4.34 4.32 4 5 C3.34 5 2.68 5 2 5 C2.33 5.99 2.66 6.98 3 8 C1.35 8.33 -0.3 8.66 -2 9 C-1.125 4.125 -1.125 4.125 0 3 C0 2.01 0 1.02 0 0 Z " fill="#FFFFFF" transform="translate(310,234)"/>
<path d="M0 0 C3.2542015 2.83430453 4.5206753 4.68607774 5 9 C3.68 9 2.36 9 1 9 C1 8.34 1 7.68 1 7 C0.34 7 -0.32 7 -1 7 C-1.33 7.66 -1.66 8.32 -2 9 C-1.51421457 5.87709365 -1.0013988 3.00419641 0 0 Z " fill="#FFFFFF" transform="translate(323,237)"/>
<path d="M0 0 C0.99 1.32 1.98 2.64 3 4 C2.67 4.99 2.34 5.98 2 7 C1.95711723 8.35348751 1.95951966 9.70893851 2 11.0625 C2 15 2 15 1 17 C1.66 17.33 2.32 17.66 3 18 C2.01 18.33 1.02 18.66 0 19 C0 12.73 0 6.46 0 0 Z " fill="#FFFFFF" transform="translate(232,193)"/>
<path d="M0 0 C1.67110042 2.96178773 2.32682752 5.37071192 2.625 8.75 C2.69976562 9.54921875 2.77453125 10.3484375 2.8515625 11.171875 C2.90054687 11.77515625 2.94953125 12.3784375 3 13 C3.99 13.33 4.98 13.66 6 14 C5.01 15.98 4.02 17.96 3 20 C2.67 20 2.34 20 2 20 C1.66254646 17.60468244 1.3299171 15.20885732 1 12.8125 C0.90460938 12.13896484 0.80921875 11.46542969 0.7109375 10.77148438 C0.21675387 7.15335423 -0.11346131 3.65203599 0 0 Z " fill="#FFFFFF" transform="translate(257,275)"/>
<path d="M0 0 C0.66 0.33 1.32 0.66 2 1 C1.34 1.66 0.68 2.32 0 3 C0.33 3.66 0.66 4.32 1 5 C-0.65 6.65 -2.3 8.3 -4 10 C-4.99 9.67 -5.98 9.34 -7 9 C-6.34 7.68 -5.68 6.36 -5 5 C-4.34 5 -3.68 5 -3 5 C-2.690625 4.360625 -2.38125 3.72125 -2.0625 3.0625 C-1 1 -1 1 0 0 Z " fill="#FFFFFF" transform="translate(365,109)"/>
<path d="M0 0 C2.625 0.9375 2.625 0.9375 5 2 C4.67 3.65 4.34 5.3 4 7 C3.01 7 2.02 7 1 7 C1.33 5.68 1.66 4.36 2 3 C0.68 2.34 -0.64 1.68 -2 1 C-1.34 0.67 -0.68 0.34 0 0 Z " fill="#FFFFFF" transform="translate(307,176)"/>
<path d="M0 0 C0.66 0.33 1.32 0.66 2 1 C2 2.32 2 3.64 2 5 C-1 7.25 -1 7.25 -4 9 C-4.33 8.01 -4.66 7.02 -5 6 C-3.59554165 3.7363436 -1.8032087 1.9791315 0 0 Z " fill="#FFFFFF" transform="translate(337,151)"/>
<path d="M0 0 C1.65 0 3.3 0 5 0 C3.77263971 4.15414253 2.672336 6.43688534 0 10 C0 6.7 0 3.4 0 0 Z " fill="#FFFFFF" transform="translate(252,235)"/>
<path d="M0 0 C0.99 0.33 1.98 0.66 3 1 C2.45773019 4.79588866 0.79872437 6.47211993 -2 9 C-2.6875 7.3125 -2.6875 7.3125 -3 5 C-1.5625 2.25 -1.5625 2.25 0 0 Z " fill="#FFFFFF" transform="translate(325,162)"/>
<path d="M0 0 C1.32 0 2.64 0 4 0 C2.33248852 3.94139078 -0.22710649 6.7892812 -3 10 C-3.33 9.01 -3.66 8.02 -4 7 C-3.34 6.01 -2.68 5.02 -2 4 C-1.34 4 -0.68 4 0 4 C-0.33 3.01 -0.66 2.02 -1 1 C-0.67 0.67 -0.34 0.34 0 0 Z " fill="#FFFFFF" transform="translate(381,107)"/>
<path d="M0 0 C-0.598125 0.28875 -1.19625 0.5775 -1.8125 0.875 C-4.19327792 2.04742026 -4.19327792 2.04742026 -7 4 C-7.99 3.67 -8.98 3.34 -10 3 C-10 2.34 -10 1.68 -10 1 C-6.42181037 -1.33958553 -4.07775191 -0.9267618 0 0 Z " fill="#FFFFFF" transform="translate(373,74)"/>
<path d="M0 0 C-0.33 1.32 -0.66 2.64 -1 4 C-3.875 4.1875 -3.875 4.1875 -7 4 C-7.66 3.01 -8.32 2.02 -9 1 C-5.92677456 0.08941469 -3.19902639 -0.08886184 0 0 Z " fill="#FFFFFF" transform="translate(267,150)"/>
<path d="M0 0 C-1.26941497 3.91402949 -2.51167694 5.79072873 -6 8 C-6.33 7.01 -6.66 6.02 -7 5 C-2.25 0 -2.25 0 0 0 Z " fill="#FFFFFF" transform="translate(342,114)"/>
<path d="M0 0 C2.31 1.65 4.62 3.3 7 5 C6.67 5.66 6.34 6.32 6 7 C3.03 6.505 3.03 6.505 0 6 C0 4.02 0 2.04 0 0 Z " fill="#FFFFFF" transform="translate(377,79)"/>
<path d="M0 0 C0.33 0.99 0.66 1.98 1 3 C1.66 3.33 2.32 3.66 3 4 C2.34 5.32 1.68 6.64 1 8 C-0.32 6.68 -1.64 5.36 -3 4 C-2 2 -2 2 0 0 Z " fill="#FFFFFF" transform="translate(301,313)"/>
<path d="M0 0 C0.66 0.33 1.32 0.66 2 1 C0.875 3.9375 0.875 3.9375 -1 7 C-4.1875 7.875 -4.1875 7.875 -7 8 C-6.02133662 6.85373678 -5.04205413 5.70800212 -4.0625 4.5625 C-3.51722656 3.92441406 -2.97195313 3.28632813 -2.41015625 2.62890625 C-1.63204305 1.73008851 -0.84063472 0.84063472 0 0 Z " fill="#FFFFFF" transform="translate(330,144)"/>
<path d="M0 0 C0 3.99904969 -1.72586967 5.80200422 -4 9 C-4.99 8.34 -5.98 7.68 -7 7 C-6.38125 6.7525 -5.7625 6.505 -5.125 6.25 C-2.62985717 4.78226892 -2.09872287 3.62003145 -1 1 C-0.67 0.67 -0.34 0.34 0 0 Z " fill="#FFFFFF" transform="translate(374,100)"/>
<path d="M0 0 C1.65 0 3.3 0 5 0 C5 1.32 5 2.64 5 4 C3.02 4 1.04 4 -1 4 C-0.67 2.68 -0.34 1.36 0 0 Z " fill="#FFFFFF" transform="translate(310,173)"/>
<path d="M0 0 C0.66 0.99 1.32 1.98 2 3 C0 5 0 5 -3.125 5.125 C-4.548125 5.063125 -4.548125 5.063125 -6 5 C-5.01 3.68 -4.02 2.36 -3 1 C-1 2 -1 2 0 3 C0 2.01 0 1.02 0 0 Z " fill="#FFFFFF" transform="translate(321,169)"/>
<path d="M0 0 C1.98 1.65 3.96 3.3 6 5 C5.01 5.495 5.01 5.495 4 6 C1.375 5.0625 1.375 5.0625 -1 4 C-0.67 2.68 -0.34 1.36 0 0 Z " fill="#FFFFFF" transform="translate(288,162)"/>
<path d="M0 0 C0.99 0.33 1.98 0.66 3 1 C1.71034824 2.37562854 0.37310707 3.70766393 -1 5 C-1.66 5 -2.32 5 -3 5 C-3.33 5.99 -3.66 6.98 -4 8 C-4.66 7.67 -5.32 7.34 -6 7 C-4.02 4.69 -2.04 2.38 0 0 Z " fill="#FFFFFF" transform="translate(350,88)"/>
<path d="M0 0 C2.33944736 0.28730055 4.6739143 0.61936779 7 1 C7 1.33 7 1.66 7 2 C5.02 2 3.04 2 1 2 C1 4.31 1 6.62 1 9 C0.67 9 0.34 9 0 9 C-0.87890625 2.84765625 -0.87890625 2.84765625 -1 1 C-0.67 0.67 -0.34 0.34 0 0 Z " fill="#FFFFFF" transform="translate(416,243)"/>
<path d="M0 0 C2.31 0.33 4.62 0.66 7 1 C6.401875 1.268125 5.80375 1.53625 5.1875 1.8125 C3.02775192 2.98493467 1.64209744 4.19369282 0 6 C-1.125 2.25 -1.125 2.25 0 0 Z " fill="#FFFFFF" transform="translate(307,242)"/>
<path d="M0 0 C1.32 0.33 2.64 0.66 4 1 C4 1.66 4 2.32 4 3 C4.66 3 5.32 3 6 3 C6.33 4.32 6.66 5.64 7 7 C3.17053157 5.54744301 1.87949705 3.57104439 0 0 Z " fill="#FFFFFF" transform="translate(281,173)"/>
</svg>
